# This file uses centimeters as units for non-parametric coordinates.

mtllib BloodVessel.mtl
g default
v 9.998254 0.000000 -35.776272
v 9.508904 3.089630 -35.776272
v 8.088758 5.876827 -35.776272
v 5.876827 8.088758 -35.776272
v 3.089631 9.508904 -35.776272
v 0.000000 9.998255 -35.776272
v -3.089631 9.508906 -35.776272
v -5.876827 8.088759 -35.776272
v -8.088759 5.876827 -35.776272
v -9.508906 3.089631 -35.776272
v -9.998256 -0.000001 -35.776272
v -9.508906 -3.089632 -35.776272
v -8.088759 -5.876828 -35.776272
v -5.876827 -8.088759 -35.776272
v -3.089630 -9.508908 -35.776272
v 0.000001 -9.998258 -35.776272
v 3.089632 -9.508908 -35.776272
v 5.876830 -8.088759 -35.776272
v 8.088761 -5.876828 -35.776272
v 9.508910 -3.089630 -35.776272
v 9.998254 0.000000 35.776288
v 9.508904 3.089630 35.776288
v 8.088758 5.876827 35.776288
v 5.876827 8.088758 35.776288
v 3.089631 9.508904 35.776288
v 0.000000 9.998255 35.776288
v -3.089631 9.508906 35.776288
v -5.876827 8.088759 35.776288
v -8.088759 5.876827 35.776288
v -9.508906 3.089631 35.776288
v -9.998256 -0.000001 35.776288
v -9.508906 -3.089632 35.776288
v -8.088759 -5.876828 35.776288
v -5.876827 -8.088759 35.776288
v -3.089630 -9.508908 35.776288
v 0.000001 -9.998258 35.776288
v 3.089632 -9.508908 35.776288
v 5.876830 -8.088759 35.776288
v 8.088761 -5.876828 35.776288
v 9.508910 -3.089630 35.776288
v 10.099246 0.000000 35.776288
v 9.604954 3.120839 35.776288
v 8.170462 5.936188 35.776288
v 5.936188 8.170462 35.776288
v 3.120838 9.604955 35.776288
v -0.000000 10.099247 35.776288
v -3.120839 9.604955 35.776288
v -5.936189 8.170462 35.776288
v -8.170464 5.936189 35.776288
v -9.604957 3.120839 35.776288
v -10.099249 0.000000 35.776288
v -9.604957 -3.120839 35.776288
v -8.170465 -5.936190 35.776288
v -5.936190 -8.170465 35.776288
v -3.120840 -9.604958 35.776288
v 0.000000 -10.099251 35.776288
v 3.120840 -9.604958 35.776288
v 5.936191 -8.170467 35.776288
v 8.170467 -5.936191 35.776288
v 9.604961 -3.120841 35.776288
v 10.099246 0.000000 -35.776272
v 9.604954 3.120839 -35.776272
v 8.170462 5.936188 -35.776272
v 5.936188 8.170462 -35.776272
v 3.120838 9.604955 -35.776272
v -0.000000 10.099247 -35.776272
v -3.120839 9.604955 -35.776272
v -5.936189 8.170462 -35.776272
v -8.170464 5.936189 -35.776272
v -9.604957 3.120839 -35.776272
v -10.099249 0.000000 -35.776272
v -9.604957 -3.120839 -35.776272
v -8.170465 -5.936190 -35.776272
v -5.936190 -8.170465 -35.776272
v -3.120840 -9.604958 -35.776272
v 0.000000 -10.099251 -35.776272
v 3.120840 -9.604958 -35.776272
v 5.936191 -8.170467 -35.776272
v 8.170467 -5.936191 -35.776272
v 9.604961 -3.120841 -35.776272
vt 0.137158 0.661691
vt 0.140581 0.640080
vt 0.141293 0.640080
vt 0.137835 0.661911
vt 0.127225 0.681187
vt 0.127800 0.681605
vt 0.111753 0.696659
vt 0.112171 0.697234
vt 0.092257 0.706592
vt 0.092477 0.707269
vt 0.070646 0.710015
vt 0.070646 0.710726
vt 0.049035 0.706592
vt 0.048815 0.707269
vt 0.029540 0.696659
vt 0.029121 0.697234
vt 0.014068 0.681187
vt 0.013492 0.681605
vt 0.004134 0.661691
vt 0.003458 0.661911
vt 0.000711 0.640080
vt 0.000000 0.640080
vt 0.004134 0.618469
vt 0.003458 0.618249
vt 0.014068 0.598973
vt 0.013492 0.598555
vt 0.029540 0.583501
vt 0.029121 0.582926
vt 0.049035 0.573568
vt 0.048815 0.572891
vt 0.070646 0.570145
vt 0.070646 0.569434
vt 0.092257 0.573568
vt 0.092477 0.572891
vt 0.111753 0.583501
vt 0.112171 0.582926
vt 0.127225 0.598973
vt 0.127800 0.598555
vt 0.137159 0.618469
vt 0.137835 0.618249
vt 0.127727 0.001255
vt 0.102233 0.001411
vt 0.076658 0.001909
vt 0.051080 0.001963
vt 0.025538 0.002469
vt 0.000000 0.002409
vt 0.485639 0.002469
vt 0.460099 0.001963
vt 0.434519 0.001909
vt 0.408944 0.001411
vt 0.383451 0.001255
vt 0.357817 0.000732
vt 0.332275 0.000494
vt 0.306726 0.000188
vt 0.281153 0.000077
vt 0.255589 0.000000
vt 0.230024 0.000077
vt 0.204452 0.000188
vt 0.178902 0.000494
vt 0.153361 0.000732
vt 0.279261 0.663676
vt 0.282719 0.641846
vt 0.282013 0.641846
vt 0.278589 0.663458
vt 0.269227 0.683369
vt 0.268656 0.682954
vt 0.253599 0.698998
vt 0.253183 0.698426
vt 0.233905 0.709032
vt 0.233687 0.708360
vt 0.212075 0.712490
vt 0.212075 0.711783
vt 0.190245 0.709032
vt 0.190463 0.708360
vt 0.170552 0.698998
vt 0.170967 0.698426
vt 0.154923 0.683369
vt 0.155494 0.682954
vt 0.144889 0.663676
vt 0.145561 0.663458
vt 0.141431 0.641846
vt 0.142138 0.641846
vt 0.144889 0.620016
vt 0.145561 0.620234
vt 0.154923 0.600322
vt 0.155494 0.600738
vt 0.170552 0.584694
vt 0.170967 0.585265
vt 0.190245 0.574660
vt 0.190463 0.575331
vt 0.212075 0.571202
vt 0.212075 0.571908
vt 0.233905 0.574660
vt 0.233687 0.575331
vt 0.253599 0.584694
vt 0.253183 0.585265
vt 0.269227 0.600322
vt 0.268656 0.600738
vt 0.279261 0.620016
vt 0.278590 0.620234
vt 0.853497 0.000098
vt 0.877914 0.000140
vt 0.829124 0.000050
vt 0.804720 0.000023
vt 0.780334 0.000006
vt 0.755924 0.000000
vt 0.731513 0.000006
vt 0.707126 0.000023
vt 0.682722 0.000050
vt 0.658349 0.000098
vt 0.633932 0.000140
vt 0.609515 0.000170
vt 0.585077 0.000173
vt 0.560646 0.000161
vt 0.536256 0.000149
vt 1.000000 0.000140
vt 0.975590 0.000149
vt 0.951200 0.000161
vt 0.926769 0.000173
vt 0.902331 0.000170
vt 0.153361 0.570624
vt 0.127727 0.570101
vt 0.178902 0.570862
vt 0.204452 0.571167
vt 0.230024 0.571279
vt 0.255589 0.571356
vt 0.281153 0.571279
vt 0.306726 0.571168
vt 0.332275 0.570862
vt 0.357817 0.570624
vt 0.383450 0.570101
vt 0.408945 0.569945
vt 0.434519 0.569447
vt 0.460099 0.569392
vt 0.485639 0.568886
vt 0.000000 0.568947
vt 0.025538 0.568886
vt 0.051079 0.569392
vt 0.076658 0.569447
vt 0.102233 0.569945
vt 0.853497 0.558952
vt 0.877914 0.558910
vt 0.829124 0.559000
vt 0.804720 0.559027
vt 0.780334 0.559044
vt 0.755924 0.559050
vt 0.731513 0.559044
vt 0.707126 0.559027
vt 0.682722 0.559000
vt 0.658349 0.558952
vt 0.633932 0.558910
vt 0.609515 0.558880
vt 0.585077 0.558878
vt 0.560646 0.558890
vt 0.536256 0.558901
vt 0.511846 0.558910
vt 0.975590 0.558902
vt 0.951200 0.558889
vt 0.926769 0.558877
vt 0.902331 0.558880
vt 0.511178 0.568947
vt 0.511846 0.000140
vt 1.000000 0.558910
vt 0.511178 0.002409
vn -0.951057 -0.309017 0.000000
vn -1.000000 -0.000001 0.000000
vn -1.000000 -0.000001 0.000000
vn -0.951057 -0.309017 0.000000
vn -0.809017 -0.587785 0.000000
vn -0.809017 -0.587785 0.000000
vn -0.587785 -0.809017 0.000000
vn -0.587785 -0.809017 0.000000
vn -0.309017 -0.951057 0.000000
vn -0.309017 -0.951057 0.000000
vn -0.000000 -1.000000 0.000000
vn -0.000000 -1.000000 0.000000
vn 0.309017 -0.951057 0.000000
vn 0.309017 -0.951057 0.000000
vn 0.587785 -0.809017 0.000000
vn 0.587785 -0.809017 0.000000
vn 0.809017 -0.587785 0.000000
vn 0.809017 -0.587785 0.000000
vn 0.951056 -0.309017 0.000000
vn 0.951056 -0.309017 0.000000
vn 1.000000 -0.000000 0.000000
vn 1.000000 -0.000000 0.000000
vn 0.951056 0.309017 -0.000000
vn 0.951056 0.309017 -0.000000
vn 0.809017 0.587785 -0.000000
vn 0.809017 0.587785 -0.000000
vn 0.587785 0.809017 -0.000000
vn 0.587785 0.809017 -0.000000
vn 0.309017 0.951056 -0.000000
vn 0.309017 0.951056 -0.000000
vn 0.000000 1.000000 -0.000000
vn 0.000000 1.000000 -0.000000
vn -0.309017 0.951056 -0.000000
vn -0.309017 0.951056 -0.000000
vn -0.587785 0.809017 -0.000000
vn -0.587785 0.809017 -0.000000
vn -0.809017 0.587785 -0.000000
vn -0.809017 0.587785 -0.000000
vn -0.951057 0.309016 0.000000
vn -0.951057 0.309016 0.000000
vn 0.000000 0.000004 1.000000
vn 0.000000 -0.000002 1.000000
vn 0.000000 -0.000002 1.000000
vn 0.000000 0.000004 1.000000
vn 0.000000 0.000006 1.000000
vn 0.000000 0.000006 1.000000
vn 0.000000 0.000002 1.000000
vn 0.000000 0.000002 1.000000
vn 0.000000 0.000016 1.000000
vn 0.000000 0.000016 1.000000
vn 0.000000 0.000031 1.000000
vn 0.000000 0.000031 1.000000
vn 0.000000 0.000016 1.000000
vn 0.000000 0.000016 1.000000
vn 0.000000 0.000004 1.000000
vn 0.000000 0.000004 1.000000
vn 0.000000 -0.000000 1.000000
vn 0.000000 -0.000000 1.000000
vn 0.000000 -0.000002 1.000000
vn 0.000000 -0.000002 1.000000
vn 0.000000 0.000001 1.000000
vn 0.000000 0.000001 1.000000
vn 0.000000 -0.000007 1.000000
vn 0.000000 -0.000007 1.000000
vn 0.000000 -0.000004 1.000000
vn 0.000000 -0.000004 1.000000
vn 0.000000 0.000008 1.000000
vn 0.000000 0.000008 1.000000
vn 0.000000 0.000018 1.000000
vn 0.000000 0.000018 1.000000
vn 0.000000 0.000012 1.000000
vn 0.000000 0.000012 1.000000
vn 0.000000 -0.000003 1.000000
vn 0.000000 -0.000003 1.000000
vn 0.000000 -0.000005 1.000000
vn 0.000000 -0.000005 1.000000
vn 0.000000 -0.000001 1.000000
vn 0.000000 -0.000001 1.000000
vn 0.000000 -0.000001 1.000000
vn 0.000000 -0.000001 1.000000
vn 0.951056 0.309017 -0.000000
vn 1.000000 0.000001 -0.000000
vn 1.000000 0.000001 -0.000000
vn 0.951056 0.309017 -0.000000
vn 0.809017 0.587785 -0.000000
vn 0.809017 0.587785 -0.000000
vn 0.587785 0.809017 -0.000000
vn 0.587785 0.809017 -0.000000
vn 0.309017 0.951056 -0.000000
vn 0.309017 0.951056 -0.000000
vn -0.000000 1.000000 -0.000000
vn -0.000000 1.000000 -0.000000
vn -0.309017 0.951057 -0.000000
vn -0.309017 0.951057 -0.000000
vn -0.587785 0.809017 -0.000000
vn -0.587785 0.809017 -0.000000
vn -0.809017 0.587785 -0.000000
vn -0.809017 0.587785 -0.000000
vn -0.951056 0.309017 0.000000
vn -0.951056 0.309017 0.000000
vn -1.000000 0.000000 0.000000
vn -1.000000 0.000000 0.000000
vn -0.951057 -0.309017 0.000000
vn -0.951057 -0.309017 0.000000
vn -0.809017 -0.587785 0.000000
vn -0.809017 -0.587785 0.000000
vn -0.587785 -0.809017 0.000000
vn -0.587785 -0.809017 0.000000
vn -0.309017 -0.951057 0.000000
vn -0.309017 -0.951057 0.000000
vn 0.000000 -1.000000 0.000000
vn 0.000000 -1.000000 0.000000
vn 0.309017 -0.951057 0.000000
vn 0.309017 -0.951057 0.000000
vn 0.587785 -0.809017 0.000000
vn 0.587785 -0.809017 0.000000
vn 0.809017 -0.587785 0.000000
vn 0.809017 -0.587785 0.000000
vn 0.951057 -0.309016 -0.000000
vn 0.951057 -0.309016 -0.000000
vn 0.000000 0.000001 -1.000000
vn 0.000000 0.000001 -1.000000
vn 0.000000 0.000001 -1.000000
vn 0.000000 0.000001 -1.000000
vn 0.000000 -0.000004 -1.000000
vn 0.000000 -0.000004 -1.000000
vn 0.000000 0.000004 -1.000000
vn 0.000000 0.000004 -1.000000
vn 0.000000 0.000007 -1.000000
vn 0.000000 0.000007 -1.000000
vn 0.000000 -0.000009 -1.000000
vn 0.000000 -0.000009 -1.000000
vn 0.000000 -0.000006 -1.000000
vn 0.000000 -0.000006 -1.000000
vn 0.000000 0.000000 -1.000000
vn 0.000000 0.000000 -1.000000
vn 0.000000 -0.000005 -1.000000
vn 0.000000 -0.000005 -1.000000
vn 0.000000 -0.000005 -1.000000
vn 0.000000 -0.000005 -1.000000
vn 0.000000 -0.000000 -1.000000
vn 0.000000 -0.000000 -1.000000
vn 0.000000 -0.000005 -1.000000
vn 0.000000 -0.000005 -1.000000
vn 0.000000 -0.000003 -1.000000
vn 0.000000 -0.000003 -1.000000
vn 0.000000 0.000006 -1.000000
vn 0.000000 0.000006 -1.000000
vn 0.000000 0.000017 -1.000000
vn 0.000000 0.000017 -1.000000
vn 0.000000 0.000013 -1.000000
vn 0.000000 0.000013 -1.000000
vn 0.000000 -0.000001 -1.000000
vn 0.000000 -0.000001 -1.000000
vn 0.000000 -0.000001 -1.000000
vn 0.000000 -0.000001 -1.000000
vn 0.000000 -0.000000 -1.000000
vn 0.000000 -0.000000 -1.000000
vn 0.000000 0.000001 -1.000000
vn 0.000000 0.000001 -1.000000
s 1
g pPipe1
usemtl initialShadingGroup
f 2/160/1 1/142/2 21/102/3 22/120/4
f 3/159/5 2/160/1 22/120/4 23/119/6
f 4/158/7 3/159/5 23/119/6 24/118/8
f 5/157/9 4/158/7 24/118/8 25/117/10
f 6/163/11 5/157/9 25/117/10 26/116/12
f 7/155/13 6/156/11 26/162/12 27/115/14
f 8/154/15 7/155/13 27/115/14 28/114/16
f 9/153/17 8/154/15 28/114/16 29/113/18
f 10/152/19 9/153/17 29/113/18 30/112/20
f 11/151/21 10/152/19 30/112/20 31/111/22
f 12/150/23 11/151/21 31/111/22 32/110/24
f 13/149/25 12/150/23 32/110/24 33/109/26
f 14/148/27 13/149/25 33/109/26 34/108/28
f 15/147/29 14/148/27 34/108/28 35/107/30
f 16/146/31 15/147/29 35/107/30 36/106/32
f 17/145/33 16/146/31 36/106/32 37/105/34
f 18/144/35 17/145/33 37/105/34 38/104/36
f 19/143/37 18/144/35 38/104/36 39/103/38
f 20/141/39 19/143/37 39/103/38 40/101/40
f 1/142/2 20/141/39 40/101/40 21/102/3
s 2
f 22/1/41 21/2/42 41/3/43 42/4/44
f 23/5/45 22/1/41 42/4/44 43/6/46
f 24/7/47 23/5/45 43/6/46 44/8/48
f 25/9/49 24/7/47 44/8/48 45/10/50
f 26/11/51 25/9/49 45/10/50 46/12/52
f 27/13/53 26/11/51 46/12/52 47/14/54
f 28/15/55 27/13/53 47/14/54 48/16/56
f 29/17/57 28/15/55 48/16/56 49/18/58
f 30/19/59 29/17/57 49/18/58 50/20/60
f 31/21/61 30/19/59 50/20/60 51/22/62
f 32/23/63 31/21/61 51/22/62 52/24/64
f 33/25/65 32/23/63 52/24/64 53/26/66
f 34/27/67 33/25/65 53/26/66 54/28/68
f 35/29/69 34/27/67 54/28/68 55/30/70
f 36/31/71 35/29/69 55/30/70 56/32/72
f 37/33/73 36/31/71 56/32/72 57/34/74
f 38/35/75 37/33/73 57/34/74 58/36/76
f 39/37/77 38/35/75 58/36/76 59/38/78
f 40/39/79 39/37/77 59/38/78 60/40/80
f 21/2/42 40/39/79 60/40/80 41/3/43
s 3
f 42/42/81 41/41/82 61/122/83 62/140/84
f 43/43/85 42/42/81 62/140/84 63/139/86
f 44/44/87 43/43/85 63/139/86 64/138/88
f 45/45/89 44/44/87 64/138/88 65/137/90
f 46/46/91 45/45/89 65/137/90 66/136/92
f 47/47/93 46/164/91 66/161/92 67/135/94
f 48/48/95 47/47/93 67/135/94 68/134/96
f 49/49/97 48/48/95 68/134/96 69/133/98
f 50/50/99 49/49/97 69/133/98 70/132/100
f 51/51/101 50/50/99 70/132/100 71/131/102
f 52/52/103 51/51/101 71/131/102 72/130/104
f 53/53/105 52/52/103 72/130/104 73/129/106
f 54/54/107 53/53/105 73/129/106 74/128/108
f 55/55/109 54/54/107 74/128/108 75/127/110
f 56/56/111 55/55/109 75/127/110 76/126/112
f 57/57/113 56/56/111 76/126/112 77/125/114
f 58/58/115 57/57/113 77/125/114 78/124/116
f 59/59/117 58/58/115 78/124/116 79/123/118
f 60/60/119 59/59/117 79/123/118 80/121/120
f 41/41/82 60/60/119 80/121/120 61/122/83
s 4
f 62/61/121 61/62/122 1/63/123 2/64/124
f 63/65/125 62/61/121 2/64/124 3/66/126
f 64/67/127 63/65/125 3/66/126 4/68/128
f 65/69/129 64/67/127 4/68/128 5/70/130
f 66/71/131 65/69/129 5/70/130 6/72/132
f 67/73/133 66/71/131 6/72/132 7/74/134
f 68/75/135 67/73/133 7/74/134 8/76/136
f 69/77/137 68/75/135 8/76/136 9/78/138
f 70/79/139 69/77/137 9/78/138 10/80/140
f 71/81/141 70/79/139 10/80/140 11/82/142
f 72/83/143 71/81/141 11/82/142 12/84/144
f 73/85/145 72/83/143 12/84/144 13/86/146
f 74/87/147 73/85/145 13/86/146 14/88/148
f 75/89/149 74/87/147 14/88/148 15/90/150
f 76/91/151 75/89/149 15/90/150 16/92/152
f 77/93/153 76/91/151 16/92/152 17/94/154
f 78/95/155 77/93/153 17/94/154 18/96/156
f 79/97/157 78/95/155 18/96/156 19/98/158
f 80/99/159 79/97/157 19/98/158 20/100/160
f 61/62/122 80/99/159 20/100/160 1/63/123
