# This file uses centimeters as units for non-parametric coordinates.

mtllib WhiteCell_low.mtl
g default
v -0.547035 -0.547035 0.547035
v 0.547035 -0.547035 0.547035
v -0.547035 0.547035 0.547035
v 0.547035 0.547035 0.547035
v -0.547035 0.547035 -0.547035
v 0.547035 0.547035 -0.547035
v -0.547035 -0.547035 -0.547035
v 0.547035 -0.547035 -0.547035
v 0.690943 0.000000 0.690943
v 0.000000 0.690943 0.690943
v -0.690943 0.690943 0.000000
v 0.690943 0.690943 0.000000
v 0.000000 0.690943 -0.690943
v -0.690943 0.000000 -0.690943
v 0.690943 0.000000 -0.690943
v 0.000000 -0.690943 -0.690943
v -0.690943 -0.690943 0.000000
v 0.690943 -0.690943 0.000000
v 0.000000 -0.690943 0.690943
v -0.690943 0.000000 0.690943
v 0.000000 0.000000 0.943636
v 0.000000 0.943636 -0.000000
v 0.000000 -0.000000 -0.943636
v 0.000000 -0.943636 0.000000
v 0.943636 0.000000 -0.000000
v -0.943636 0.000000 0.000000
v 0.000000 -0.376708 0.880229
v -0.376708 0.000000 0.880229
v 0.324491 -0.643388 0.643388
v 0.643388 -0.324491 0.643388
v 0.376708 0.000000 0.880229
v 0.000000 0.376708 0.880229
v 0.643388 0.324491 0.643388
v 0.324491 0.643388 0.643388
v -0.643388 0.324491 0.643388
v -0.324491 0.643388 0.643388
v -0.643388 0.643388 0.324491
v 0.000000 0.880229 0.376708
v -0.376708 0.880229 0.000000
v 0.643388 0.643388 0.324491
v 0.376708 0.880229 0.000000
v 0.000000 0.880229 -0.376708
v 0.643388 0.643388 -0.324491
v 0.324491 0.643388 -0.643388
v -0.643388 0.643388 -0.324491
v -0.324491 0.643388 -0.643388
v -0.643388 0.324491 -0.643388
v 0.000000 0.376708 -0.880229
v -0.376708 0.000000 -0.880229
v 0.643388 0.324491 -0.643388
v 0.376708 0.000000 -0.880229
v 0.000000 -0.376708 -0.880229
v 0.643388 -0.324491 -0.643388
v 0.324491 -0.643388 -0.643388
v -0.643388 -0.324491 -0.643388
v -0.324491 -0.643388 -0.643388
v -0.643388 -0.643388 -0.324491
v 0.000000 -0.880229 -0.376708
v -0.376708 -0.880229 0.000000
v 0.643388 -0.643388 -0.324491
v 0.376708 -0.880229 0.000000
v 0.000000 -0.880229 0.376708
v 0.643388 -0.643388 0.324491
v -0.643388 -0.643388 0.324491
v 0.880229 -0.376708 0.000000
v 0.880229 0.000000 0.376708
v 0.880229 0.000000 -0.376708
v 0.880229 0.376708 0.000000
v -0.880229 -0.376708 0.000000
v -0.880229 0.000000 -0.376708
v -0.880229 0.000000 0.376708
v -0.880229 0.376708 0.000000
v -0.324491 -0.643388 0.643388
v -0.643388 -0.324491 0.643388
v -0.350600 -0.350600 0.820553
v 0.350600 -0.350600 0.820553
v 0.350600 0.350600 0.820553
v -0.350600 0.350600 0.820553
v -0.350600 0.820553 0.350600
v 0.350600 0.820553 0.350600
v 0.350600 0.820553 -0.350600
v -0.350600 0.820553 -0.350600
v -0.350600 0.350600 -0.820553
v 0.350600 0.350600 -0.820553
v 0.350600 -0.350600 -0.820553
v -0.350600 -0.350600 -0.820553
v -0.350600 -0.820553 -0.350600
v 0.350600 -0.820553 -0.350600
v 0.350600 -0.820553 0.350600
v -0.350600 -0.820553 0.350600
v 0.820553 -0.350600 0.350600
v 0.820553 -0.350600 -0.350600
v 0.820553 0.350600 -0.350600
v 0.820553 0.350600 0.350600
v -0.820553 -0.350600 -0.350600
v -0.820553 -0.350600 0.350600
v -0.820553 0.350600 0.350600
v -0.820553 0.350600 -0.350600
vt 0.247210 0.573300
vt 0.233427 0.540447
vt 0.280270 0.537891
vt 0.282388 0.577415
vt 0.226594 0.500002
vt 0.275841 0.499997
vt 0.320618 0.500002
vt 0.320560 0.538887
vt 0.320456 0.579127
vt 0.233427 0.459551
vt 0.280269 0.462113
vt 0.247210 0.426700
vt 0.282389 0.422583
vt 0.320455 0.420876
vt 0.320561 0.461109
vt 0.360865 0.462212
vt 0.365267 0.500000
vt 0.358643 0.422738
vt 0.393961 0.426930
vt 0.407598 0.459601
vt 0.414228 0.499997
vt 0.360865 0.537788
vt 0.358641 0.577261
vt 0.407598 0.540403
vt 0.393961 0.573069
vt 0.456355 0.559388
vt 0.416705 0.601535
vt 0.478022 0.500003
vt 0.582079 0.499998
vt 0.504693 0.601068
vt 0.441089 0.644293
vt 0.456355 0.440608
vt 0.416704 0.398465
vt 0.441090 0.355709
vt 0.504692 0.398934
vt 0.533334 0.310089
vt 0.639825 0.678268
vt 0.455949 0.294589
vt 0.455782 0.236808
vt 0.511203 0.206336
vt 0.599151 0.159225
vt 0.533335 0.689911
vt 0.455950 0.705409
vt 0.511202 0.793664
vt 0.455781 0.763192
vt 0.426826 0.860939
vt 0.397389 0.788021
vt 0.482951 0.044785
vt 0.320475 0.001992
vt 0.320610 0.880175
vt 0.320524 0.798131
vt 0.426824 0.139059
vt 0.397388 0.211981
vt 0.320523 0.201869
vt 0.320613 0.119824
vt 0.214048 0.139091
vt 0.157920 0.955040
vt 0.243623 0.212138
vt 0.184984 0.236786
vt 0.129656 0.206441
vt 0.041778 0.159506
vt 0.214050 0.860911
vt 0.243622 0.787863
vt 0.129654 0.793559
vt 0.184985 0.763211
vt 0.107498 0.689819
vt 0.184882 0.705357
vt 0.001277 0.321808
vt 0.058861 0.500000
vt 0.136332 0.601103
vt 0.199796 0.644281
vt 0.107499 0.310180
vt 0.184880 0.294647
vt 0.199797 0.355715
vt 0.136331 0.398898
vt 0.184634 0.440581
vt 0.162821 0.499999
vt 0.224488 0.398365
vt 0.184634 0.559418
vt 0.224488 0.601636
vt 0.272776 0.382115
vt 0.259610 0.335208
vt 0.320525 0.328838
vt 0.320420 0.379540
vt 0.252736 0.277615
vt 0.320609 0.269667
vt 0.388188 0.277547
vt 0.381410 0.335180
vt 0.368243 0.382247
vt 0.252735 0.722383
vt 0.259611 0.664793
vt 0.320525 0.671164
vt 0.320609 0.730333
vt 0.272777 0.617885
vt 0.320419 0.620457
vt 0.368244 0.617756
vt 0.381410 0.664817
vt 0.388187 0.722454
vt 0.001277 0.678192
vt 0.041778 0.840495
vt 0.157921 0.044960
vt 0.320476 0.998008
vt 0.482950 0.955216
vt 0.599151 0.840775
vt 0.639826 0.321733
vn -0.577350 -0.577350 0.577350
vn -0.313220 -0.671526 0.671526
vn -0.329322 -0.329322 0.884926
vn -0.671526 -0.313220 0.671526
vn -0.000000 -0.707107 0.707107
vn -0.000000 -0.345160 0.938544
vn 0.000000 -0.000000 1.000000
vn -0.345160 -0.000000 0.938544
vn -0.707107 0.000000 0.707107
vn 0.313220 -0.671526 0.671526
vn 0.329322 -0.329322 0.884926
vn 0.577350 -0.577350 0.577350
vn 0.671526 -0.313220 0.671526
vn 0.707107 -0.000000 0.707107
vn 0.345160 -0.000000 0.938544
vn 0.329322 0.329322 0.884926
vn 0.000000 0.345160 0.938544
vn 0.671526 0.313220 0.671526
vn 0.577350 0.577350 0.577350
vn 0.313220 0.671526 0.671526
vn 0.000000 0.707107 0.707107
vn -0.329322 0.329322 0.884926
vn -0.671526 0.313220 0.671526
vn -0.313220 0.671526 0.671526
vn -0.577350 0.577350 0.577350
vn -0.329322 0.884926 0.329322
vn -0.671526 0.671526 0.313220
vn 0.000000 0.938544 0.345160
vn 0.000000 1.000000 0.000000
vn -0.345160 0.938544 0.000000
vn -0.707107 0.707107 0.000000
vn 0.329322 0.884926 0.329322
vn 0.671526 0.671526 0.313220
vn 0.707107 0.707107 0.000000
vn 0.345160 0.938544 0.000000
vn 0.329322 0.884926 -0.329322
vn -0.000000 0.938544 -0.345160
vn 0.671526 0.671526 -0.313220
vn 0.577350 0.577350 -0.577350
vn 0.313220 0.671526 -0.671526
vn -0.000000 0.707107 -0.707107
vn -0.329322 0.884926 -0.329322
vn -0.671526 0.671526 -0.313220
vn -0.313220 0.671526 -0.671526
vn -0.577350 0.577350 -0.577350
vn -0.329322 0.329322 -0.884926
vn -0.671526 0.313220 -0.671526
vn -0.000000 0.345160 -0.938544
vn 0.000000 0.000000 -1.000000
vn -0.345160 0.000000 -0.938544
vn -0.707107 -0.000000 -0.707107
vn 0.329322 0.329322 -0.884926
vn 0.671526 0.313220 -0.671526
vn 0.707107 0.000000 -0.707107
vn 0.345160 0.000000 -0.938544
vn 0.329322 -0.329322 -0.884926
vn 0.000000 -0.345160 -0.938544
vn 0.671526 -0.313220 -0.671526
vn 0.577350 -0.577350 -0.577350
vn 0.313220 -0.671526 -0.671526
vn 0.000000 -0.707107 -0.707107
vn -0.329322 -0.329322 -0.884926
vn -0.671526 -0.313220 -0.671526
vn -0.313220 -0.671526 -0.671526
vn -0.577350 -0.577350 -0.577350
vn -0.329322 -0.884926 -0.329322
vn -0.671526 -0.671526 -0.313220
vn 0.000000 -0.938544 -0.345160
vn 0.000000 -1.000000 -0.000000
vn -0.345160 -0.938544 -0.000000
vn -0.707107 -0.707107 -0.000000
vn 0.329322 -0.884926 -0.329322
vn 0.671526 -0.671526 -0.313220
vn 0.707107 -0.707107 0.000000
vn 0.345160 -0.938544 -0.000000
vn 0.329322 -0.884926 0.329322
vn -0.000000 -0.938544 0.345160
vn 0.671526 -0.671526 0.313220
vn -0.329322 -0.884926 0.329322
vn -0.671526 -0.671526 0.313220
vn 0.884926 -0.329322 0.329322
vn 0.938544 -0.345160 0.000000
vn 1.000000 -0.000000 -0.000000
vn 0.938544 0.000000 0.345160
vn 0.884926 -0.329322 -0.329322
vn 0.938544 -0.000000 -0.345160
vn 0.884926 0.329322 -0.329322
vn 0.938544 0.345160 0.000000
vn 0.884926 0.329322 0.329322
vn -0.884926 -0.329322 -0.329322
vn -0.938544 -0.345160 0.000000
vn -1.000000 -0.000000 0.000000
vn -0.938544 -0.000000 -0.345160
vn -0.884926 -0.329322 0.329322
vn -0.938544 0.000000 0.345160
vn -0.884926 0.329322 0.329322
vn -0.938544 0.345160 -0.000000
vn -0.884926 0.329322 -0.329322
s 1
g WhiteCell_Low
usemtl initialShadingGroup
f 1/1/1 73/2/2 75/3/3 74/4/4
f 73/2/2 19/5/5 27/6/6 75/3/3
f 75/3/3 27/6/6 21/7/7 28/8/8
f 74/4/4 75/3/3 28/8/8 20/9/9
f 19/5/5 29/10/10 76/11/11 27/6/6
f 29/10/10 2/12/12 30/13/13 76/11/11
f 76/11/11 30/13/13 9/14/14 31/15/15
f 27/6/6 76/11/11 31/15/15 21/7/7
f 21/7/7 31/15/15 77/16/16 32/17/17
f 31/15/15 9/14/14 33/18/18 77/16/16
f 77/16/16 33/18/18 4/19/19 34/20/20
f 32/17/17 77/16/16 34/20/20 10/21/21
f 20/9/9 28/8/8 78/22/22 35/23/23
f 28/8/8 21/7/7 32/17/17 78/22/22
f 78/22/22 32/17/17 10/21/21 36/24/24
f 35/23/23 78/22/22 36/24/24 3/25/25
f 3/25/25 36/24/24 79/26/26 37/27/27
f 36/24/24 10/21/21 38/28/28 79/26/26
f 79/26/26 38/28/28 22/29/29 39/30/30
f 37/27/27 79/26/26 39/30/30 11/31/31
f 10/21/21 34/20/20 80/32/32 38/28/28
f 34/20/20 4/19/19 40/33/33 80/32/32
f 80/32/32 40/33/33 12/34/34 41/35/35
f 38/28/28 80/32/32 41/35/35 22/29/29
f 22/29/29 41/35/35 81/36/36 42/105/37
f 41/35/35 12/34/34 43/38/38 81/36/36
f 81/36/36 43/38/38 6/39/39 44/40/40
f 42/105/37 81/36/36 44/40/40 13/41/41
f 11/31/31 39/30/30 82/42/42 45/43/43
f 39/30/30 22/29/29 42/37/37 82/42/42
f 82/42/42 42/37/37 13/104/41 46/44/44
f 45/43/43 82/42/42 46/44/44 5/45/45
f 5/45/45 46/44/44 83/46/46 47/47/47
f 46/44/44 13/104/41 48/103/48 83/46/46
f 83/46/46 48/103/48 23/102/49 49/50/50
f 47/47/47 83/46/46 49/50/50 14/51/51
f 13/41/41 44/40/40 84/52/52 48/48/48
f 44/40/40 6/39/39 50/53/53 84/52/52
f 84/52/52 50/53/53 15/54/54 51/55/55
f 48/48/48 84/52/52 51/55/55 23/49/49
f 23/49/49 51/55/55 85/56/56 52/101/57
f 51/55/55 15/54/54 53/58/58 85/56/56
f 85/56/56 53/58/58 8/59/59 54/60/60
f 52/101/57 85/56/56 54/60/60 16/61/61
f 14/51/51 49/50/50 86/62/62 55/63/63
f 49/50/50 23/102/49 52/57/57 86/62/62
f 86/62/62 52/57/57 16/100/61 56/64/64
f 55/63/63 86/62/62 56/64/64 7/65/65
f 7/65/65 56/64/64 87/66/66 57/67/67
f 56/64/64 16/100/61 58/99/68 87/66/66
f 87/66/66 58/99/68 24/69/69 59/70/70
f 57/67/67 87/66/66 59/70/70 17/71/71
f 16/61/61 54/60/60 88/72/72 58/68/68
f 54/60/60 8/59/59 60/73/73 88/72/72
f 88/72/72 60/73/73 18/74/74 61/75/75
f 58/68/68 88/72/72 61/75/75 24/69/69
f 24/69/69 61/75/75 89/76/76 62/77/77
f 61/75/75 18/74/74 63/78/78 89/76/76
f 89/76/76 63/78/78 2/12/12 29/10/10
f 62/77/77 89/76/76 29/10/10 19/5/5
f 17/71/71 59/70/70 90/79/79 64/80/80
f 59/70/70 24/69/69 62/77/77 90/79/79
f 90/79/79 62/77/77 19/5/5 73/2/2
f 64/80/80 90/79/79 73/2/2 1/1/1
f 2/12/12 63/78/78 91/81/81 30/13/13
f 63/78/78 18/74/74 65/82/82 91/81/81
f 91/81/81 65/82/82 25/83/83 66/84/84
f 30/13/13 91/81/81 66/84/84 9/14/14
f 18/74/74 60/73/73 92/85/85 65/82/82
f 60/73/73 8/59/59 53/58/58 92/85/85
f 92/85/85 53/58/58 15/54/54 67/86/86
f 65/82/82 92/85/85 67/86/86 25/83/83
f 25/83/83 67/86/86 93/87/87 68/88/88
f 67/86/86 15/54/54 50/53/53 93/87/87
f 93/87/87 50/53/53 6/39/39 43/38/38
f 68/88/88 93/87/87 43/38/38 12/34/34
f 9/14/14 66/84/84 94/89/89 33/18/18
f 66/84/84 25/83/83 68/88/88 94/89/89
f 94/89/89 68/88/88 12/34/34 40/33/33
f 33/18/18 94/89/89 40/33/33 4/19/19
f 7/65/65 57/67/67 95/90/90 55/63/63
f 57/67/67 17/71/71 69/91/91 95/90/90
f 95/90/90 69/91/91 26/92/92 70/93/93
f 55/63/63 95/90/90 70/93/93 14/51/51
f 17/71/71 64/80/80 96/94/94 69/91/91
f 64/80/80 1/1/1 74/4/4 96/94/94
f 96/94/94 74/4/4 20/9/9 71/95/95
f 69/91/91 96/94/94 71/95/95 26/92/92
f 26/92/92 71/95/95 97/96/96 72/97/97
f 71/95/95 20/9/9 35/23/23 97/96/96
f 97/96/96 35/23/23 3/25/25 37/27/27
f 72/97/97 97/96/96 37/27/27 11/31/31
f 14/51/51 70/93/93 98/98/98 47/47/47
f 70/93/93 26/92/92 72/97/97 98/98/98
f 98/98/98 72/97/97 11/31/31 45/43/43
f 47/47/47 98/98/98 45/43/43 5/45/45
