# This file uses centimeters as units for non-parametric coordinates.

mtllib Mitocondria_low.mtl
g default
v -0.733089 0.257042 -0.229216
v -0.794598 0.149112 -0.262865
v -0.946429 0.202810 -0.110787
v -0.789629 0.323871 -0.118584
v -0.619561 0.412653 -0.135160
v -0.586145 0.304461 -0.268621
v -0.584406 0.160500 -0.350905
v -0.837955 -0.381001 0.222722
v -0.713468 -0.423668 0.209128
v -0.720991 -0.388236 0.357154
v -0.878089 -0.333965 0.321432
v -0.904728 -0.345993 0.131307
v -0.758080 -0.407562 0.049524
v -0.989102 -0.280901 0.231990
v 0.859713 -0.057184 0.411411
v 0.915297 -0.074747 0.322652
v 0.953632 0.050538 0.346232
v 0.868797 0.033291 0.453444
v 0.749144 -0.154641 0.438409
v 0.805753 -0.219705 0.293326
v 0.720332 -0.038364 0.534042
v 0.953514 -0.034782 0.004233
v 0.958634 0.067848 -0.021958
v 1.010975 0.067727 0.114597
v 0.965692 -0.058629 0.098376
v 0.824684 -0.115514 -0.101963
v 0.818615 0.019605 -0.180562
v 0.834536 -0.198421 0.021195
v 0.843131 0.430424 0.034205
v 0.847944 0.447141 0.135510
v 0.934990 0.324281 0.141010
v 0.894856 0.331973 -0.000502
v 0.721261 0.471518 -0.046657
v 0.696725 0.548277 0.071715
v 0.772934 0.340181 0.474414
v 0.810634 0.255587 0.486571
v 0.899056 0.269075 0.372877
v 0.822280 0.371705 0.391608
v 0.683867 0.484449 0.408193
v 0.652344 0.400582 0.523867
v 0.658152 0.265684 0.573700
v -1.040756 -0.230777 0.135720
v -0.989882 -0.262940 0.022296
v -1.093403 -0.146127 0.128157
v -1.035039 -0.169956 -0.048296
v -1.052068 -0.169834 0.293199
v -0.900091 0.222925 0.375908
v -0.938540 0.109842 0.421758
v -0.770323 0.090276 0.530011
v -0.764897 0.259979 0.436678
v -0.793516 0.367584 0.279758
v -0.955944 0.269958 0.254891
v -1.057737 0.122795 0.257924
v -0.980402 0.268792 0.071617
v -1.080872 0.118331 0.079015
v -1.109356 -0.021264 0.104811
v -1.074480 -0.023390 0.295276
v -0.946927 -0.047647 0.451630
v -0.919934 -0.219085 0.421568
v -0.731415 -0.260285 0.497010
v -0.765798 -0.060628 0.557418
v -0.516936 -0.282002 0.541362
v -0.523534 -0.083009 0.628501
v -0.533808 0.102315 0.601450
v -0.276909 -0.116038 0.669436
v -0.322956 0.130313 0.642004
v -0.351218 0.356078 0.535544
v -0.556069 0.295435 0.493797
v -0.376521 0.508353 0.328734
v -0.583403 0.439180 0.304030
v -0.382768 0.545856 0.101699
v -0.609543 0.473949 0.073584
v -0.809747 0.385493 0.076593
v -0.370631 0.493715 -0.141534
v -0.134593 0.610235 0.174171
v -0.107025 0.545165 -0.118682
v -0.068147 0.443050 -0.318386
v -0.367379 0.389527 -0.305428
v -0.042009 0.297632 -0.428246
v -0.343957 0.222508 -0.408250
v -0.019664 0.132813 -0.472453
v -0.308095 0.043480 -0.453332
v -0.579745 -0.031499 -0.405070
v -0.266998 -0.149001 -0.429128
v -0.574755 -0.159372 -0.385285
v -0.873729 -0.121065 -0.263169
v -0.861910 -0.023015 -0.276351
v -1.050745 -0.060062 -0.085739
v -1.025672 0.066760 -0.108213
v -0.861770 -0.205825 -0.212536
v -0.577526 -0.269666 -0.320616
v -0.575390 -0.368741 -0.203342
v -0.824634 -0.321824 -0.104347
v -0.544548 -0.441683 -0.013940
v -0.275251 -0.429169 -0.221659
v -0.278280 -0.491235 -0.045811
v -0.275607 -0.488498 0.218795
v -0.522884 -0.466271 0.201050
v -0.286254 -0.433601 0.411410
v -0.535713 -0.410851 0.384273
v -0.279639 -0.303257 0.574769
v -0.012021 -0.458170 0.448236
v -0.017667 -0.305331 0.594856
v -0.041026 -0.083695 0.689191
v 0.247081 -0.245082 0.607699
v 0.204817 -0.020541 0.691862
v 0.150070 0.286333 0.674202
v -0.090217 0.199326 0.676263
v 0.115468 0.502107 0.580187
v -0.145911 0.440649 0.573069
v 0.121495 0.616812 0.429132
v -0.156157 0.582919 0.382486
v 0.133845 0.646830 0.202966
v 0.438925 0.585111 0.424974
v 0.423725 0.629137 0.220326
v 0.425361 0.595642 0.013486
v 0.148907 0.585927 -0.075513
v 0.473814 0.476290 -0.163955
v 0.180548 0.463672 -0.264497
v 0.519522 0.335172 -0.267386
v 0.227384 0.318156 -0.375037
v 0.552631 0.130821 -0.321458
v 0.259674 0.131642 -0.417293
v 0.569777 -0.044741 -0.309497
v 0.272997 -0.077451 -0.393599
v 0.002072 -0.086629 -0.430488
v 0.297257 -0.279253 -0.290403
v 0.023334 -0.319165 -0.324106
v -0.265765 -0.326129 -0.337747
v 0.023552 -0.434791 -0.197520
v 0.300191 -0.393800 -0.148752
v 0.290486 -0.478503 0.077869
v 0.000969 -0.502831 -0.000832
v 0.289947 -0.484602 0.284178
v -0.009256 -0.524182 0.254579
v 0.278529 -0.402445 0.468707
v 0.567568 -0.372262 0.289658
v 0.544989 -0.285405 0.464866
v 0.501606 -0.134979 0.593771
v 0.698624 0.106689 0.575217
v 0.457719 0.049254 0.659830
v 0.421587 0.295406 0.637942
v 0.428346 0.476276 0.557416
v 0.846798 0.143186 0.475316
v 0.952370 0.169171 0.347875
v 1.004629 0.061463 0.233623
v 0.990936 0.179348 0.246835
v 0.931233 0.301565 0.269643
v 0.840806 0.430168 0.269379
v 0.996094 0.189113 0.138724
v 0.945331 0.193390 -0.023119
v 0.805607 0.176109 -0.191744
v 0.771363 0.332689 -0.145149
v 0.686928 0.549027 0.236122
v 0.964181 -0.065019 0.209266
v 0.827432 -0.235840 0.150908
v 0.572266 -0.385683 0.093521
v 0.583992 -0.322787 -0.090576
v 0.585028 -0.213201 -0.218425
vt 0.173852 0.753738
vt 0.141028 0.739336
vt 0.170256 0.702139
vt 0.196743 0.733827
vt 0.184676 0.817768
vt 0.116309 0.825687
vt 0.150115 0.668306
vt 0.108029 0.706952
vt 0.195456 0.678111
vt 0.217646 0.709862
vt 0.228434 0.789303
vt 0.250960 0.925200
vt 0.165452 0.957804
vt 0.049160 0.772673
vt 0.177491 0.647452
vt 0.076941 0.658613
vt 0.121672 0.628350
vt 0.223378 0.657367
vt 0.244333 0.689332
vt 0.257634 0.759947
vt 0.296912 0.871397
vt 0.008744 0.696524
vt 0.162255 0.605487
vt 0.204614 0.627858
vt 0.060800 0.614589
vt 0.090785 0.584405
vt 0.264878 0.667921
vt 0.257205 0.638871
vt 0.279314 0.725218
vt 0.330444 0.813801
vt 0.000000 0.607572
vt 0.199162 0.590755
vt 0.139071 0.555888
vt 0.249697 0.604985
vt 0.026185 0.541510
vt 0.301057 0.683824
vt 0.305881 0.640266
vt 0.347393 0.758276
vt 0.194323 0.544219
vt 0.242696 0.565393
vt 0.092053 0.490576
vt 0.301122 0.594323
vt 0.188677 0.469624
vt 0.234552 0.531553
vt 0.295587 0.537894
vt 0.276632 0.474671
vt 0.678087 0.596099
vt 0.703225 0.591583
vt 0.705781 0.611787
vt 0.677027 0.615044
vt 0.668256 0.573868
vt 0.693611 0.566891
vt 0.736890 0.590092
vt 0.742538 0.614140
vt 0.705210 0.629711
vt 0.677778 0.634002
vt 0.649271 0.620525
vt 0.649749 0.599897
vt 0.649750 0.582092
vt 0.677043 0.538106
vt 0.648305 0.552815
vt 0.725349 0.562435
vt 0.791990 0.585196
vt 0.808515 0.617600
vt 0.742781 0.637081
vt 0.703707 0.646273
vt 0.683873 0.654264
vt 0.651759 0.643801
vt 0.619175 0.624374
vt 0.620594 0.601887
vt 0.711512 0.527659
vt 0.762162 0.540460
vt 0.821556 0.659114
vt 0.727246 0.658443
vt 0.698584 0.677756
vt 0.661291 0.665885
vt 0.738910 0.516534
vt 0.759920 0.698862
vt 0.674176 0.683969
vt 0.661582 0.707553
vt 0.638952 0.684795
vt 0.702577 0.715494
vt 0.631236 0.740224
vt 0.607691 0.702885
vt 0.622628 0.656105
vt 0.678902 0.777110
vt 0.574309 0.768607
vt 0.557229 0.722085
vt 0.587220 0.667874
vt 0.743907 0.807451
vt 0.611188 0.836326
vt 0.504333 0.781097
vt 0.495192 0.731394
vt 0.542697 0.678736
vt 0.802789 0.836087
vt 0.645332 0.893637
vt 0.517630 0.853998
vt 0.425277 0.776853
vt 0.426588 0.725217
vt 0.488599 0.683812
vt 0.678764 0.950939
vt 0.524153 0.927924
vt 0.421957 0.835869
vt 0.358487 0.706183
vt 0.429582 0.674360
vt 0.535626 1.000000
vt 0.407417 0.918448
vt 0.367007 0.653831
vt 0.391358 0.994129
vt 0.619836 0.528665
vt 0.586672 0.503107
vt 0.621113 0.471205
vt 0.655447 0.505379
vt 0.594360 0.562019
vt 0.558387 0.544636
vt 0.542994 0.478878
vt 0.569622 0.440411
vt 0.665913 0.441186
vt 0.695856 0.491090
vt 0.519251 0.522205
vt 0.627545 0.574107
vt 0.482348 0.452101
vt 0.512876 0.401693
vt 0.622606 0.391195
vt 0.709408 0.423992
vt 0.733566 0.477905
vt 0.465928 0.494745
vt 0.395967 0.416854
vt 0.436941 0.355804
vt 0.567553 0.344987
vt 0.669452 0.354705
vt 0.378862 0.472162
vt 0.338869 0.303455
vt 0.290783 0.392581
vt 0.486023 0.298854
vt 0.618623 0.300014
vt 0.714006 0.328502
vt 0.759628 0.407694
vt 0.392132 0.233926
vt 0.535442 0.234868
vt 0.662388 0.258811
vt 0.437745 0.176767
vt 0.580894 0.182314
vt 0.491874 0.108502
vt 0.777877 0.479260
vt 0.837427 0.489161
vt 0.814118 0.391286
vt 0.882082 0.502678
vt 0.760892 0.304752
vt 0.881454 0.372362
vt 0.931530 0.525603
vt 0.714723 0.217555
vt 0.831705 0.272329
vt 0.964987 0.365781
vt 0.643273 0.122931
vt 0.781163 0.174372
vt 0.928577 0.227167
vt 0.543997 0.051407
vt 0.698405 0.071583
vt 0.856187 0.115829
vt 0.590875 0.000000
vt 0.762966 0.016391
vt 0.375366 0.532127
vt 0.372155 0.601115
vt 0.446910 0.546566
vt 0.434495 0.617688
vt 0.497977 0.572647
vt 0.487895 0.631514
vt 0.543572 0.589917
vt 0.535038 0.637332
vt 0.581803 0.597711
vt 0.579587 0.629826
vn -0.426003 0.563561 -0.707757
vn -0.474837 0.349341 -0.807769
vn -0.652889 0.541203 -0.529938
vn -0.488898 0.751659 -0.442705
vn -0.357973 0.841891 -0.403825
vn -0.345283 0.600497 -0.721237
vn -0.329384 0.319383 -0.888538
vn -0.408431 -0.906170 0.109724
vn -0.241491 -0.967161 0.079258
vn -0.265840 -0.835401 0.481076
vn -0.486405 -0.755808 0.438366
vn -0.513563 -0.851503 -0.105810
vn -0.319232 -0.924509 -0.208265
vn -0.684028 -0.696072 0.218150
vn 0.648791 -0.466274 0.601380
vn 0.758433 -0.526044 0.384781
vn 0.852874 -0.154398 0.498766
vn 0.663210 -0.190564 0.723767
vn 0.508779 -0.605472 0.612003
vn 0.581332 -0.753892 0.306103
vn 0.449163 -0.332372 0.829326
vn 0.804134 -0.384879 -0.453031
vn 0.841240 -0.058447 -0.537494
vn 0.985973 -0.058406 -0.156350
vn 0.848194 -0.501499 -0.170488
vn 0.605667 -0.500892 -0.618284
vn 0.591532 -0.174584 -0.787153
vn 0.617104 -0.719050 -0.319609
vn 0.662487 0.651160 -0.370272
vn 0.684630 0.728322 -0.028801
vn 0.873773 0.482406 -0.061685
vn 0.766840 0.453160 -0.454535
vn 0.383871 0.733395 -0.561049
vn 0.345716 0.908836 -0.233447
vn 0.570149 0.461196 0.679874
vn 0.606300 0.232863 0.760379
vn 0.780246 0.366582 0.506789
vn 0.649587 0.606975 0.457841
vn 0.421942 0.799052 0.428348
vn 0.367705 0.532791 0.762186
vn 0.346808 0.211460 0.913788
vn -0.778490 -0.626724 -0.034200
vn -0.627237 -0.717888 -0.302012
vn -0.954332 -0.298182 -0.018377
vn -0.772961 -0.457657 -0.439411
vn -0.833217 -0.334491 0.440301
vn -0.549336 0.560189 0.620015
vn -0.626368 0.315308 0.712912
vn -0.370082 0.301861 0.878589
vn -0.357789 0.605778 0.710648
vn -0.418479 0.843360 0.337074
vn -0.661780 0.698100 0.273318
vn -0.865905 0.374712 0.331361
vn -0.698303 0.702966 -0.134950
vn -0.917292 0.379631 -0.120236
vn -0.997894 0.021066 -0.061356
vn -0.892576 0.033047 0.449684
vn -0.629082 -0.043595 0.776115
vn -0.563369 -0.438047 0.700522
vn -0.319654 -0.517210 0.793924
vn -0.371424 -0.105957 0.922398
vn -0.200591 -0.575287 0.792974
vn -0.227053 -0.148319 0.962522
vn -0.252031 0.280057 0.926309
vn -0.130344 -0.191137 0.972871
vn -0.205491 0.220807 0.953424
vn -0.321893 0.564465 0.760108
vn -0.303060 0.595129 0.744296
vn -0.349204 0.859822 0.372508
vn -0.339050 0.857721 0.386472
vn -0.266576 0.961413 -0.067990
vn -0.350158 0.934965 -0.056829
vn -0.479546 0.873326 -0.085654
vn -0.225669 0.899754 -0.373519
vn -0.183394 0.980951 -0.064046
vn -0.116560 0.928471 -0.352641
vn -0.058631 0.738783 -0.671388
vn -0.231890 0.680044 -0.695533
vn -0.008193 0.424973 -0.905169
vn -0.211276 0.366725 -0.906022
vn 0.052822 0.055766 -0.997046
vn -0.122607 0.031304 -0.991962
vn -0.287375 0.043653 -0.956823
vn -0.027064 -0.317635 -0.947827
vn -0.240207 -0.322790 -0.915482
vn -0.550688 -0.257239 -0.794085
vn -0.530794 0.113242 -0.839901
vn -0.857843 -0.099532 -0.504181
vn -0.785258 0.262205 -0.560908
vn -0.506793 -0.573313 -0.643796
vn -0.258096 -0.609966 -0.749218
vn -0.264824 -0.829194 -0.492245
vn -0.426485 -0.790036 -0.440402
vn -0.204755 -0.957855 -0.201467
vn -0.086041 -0.866227 -0.492187
vn -0.103181 -0.977319 -0.184936
vn -0.117371 -0.987900 0.101375
vn -0.151774 -0.984761 0.084916
vn -0.131199 -0.868549 0.477923
vn -0.158828 -0.867967 0.470538
vn -0.122237 -0.597463 0.792525
vn -0.004040 -0.848384 0.529366
vn 0.005424 -0.563425 0.826150
vn -0.030123 -0.163167 0.986139
vn 0.159451 -0.493317 0.855110
vn 0.083597 -0.114614 0.989886
vn 0.018036 0.235685 0.971662
vn -0.125061 0.197088 0.972377
vn -0.039543 0.610186 0.791270
vn -0.251765 0.573315 0.779695
vn -0.042037 0.921691 0.385640
vn -0.269043 0.891463 0.364567
vn -0.032820 0.998577 -0.042037
vn 0.198206 0.894014 0.401813
vn 0.155870 0.987361 0.028670
vn 0.152345 0.934148 -0.322735
vn 0.011524 0.933352 -0.358777
vn 0.235885 0.746381 -0.622314
vn 0.119017 0.758995 -0.640126
vn 0.325536 0.462291 -0.824811
vn 0.219869 0.447975 -0.866589
vn 0.365530 0.123444 -0.922578
vn 0.244940 0.080364 -0.966202
vn 0.385779 -0.241642 -0.890384
vn 0.228050 -0.271704 -0.934971
vn 0.100524 -0.284026 -0.953532
vn 0.246406 -0.569273 -0.784355
vn 0.122508 -0.574999 -0.808930
vn -0.036443 -0.600389 -0.798877
vn 0.115961 -0.869371 -0.480362
vn 0.252781 -0.852479 -0.457583
vn 0.230074 -0.959835 -0.160571
vn 0.054462 -0.981714 -0.182406
vn 0.232750 -0.954359 0.187156
vn 0.004932 -0.992015 0.126027
vn 0.217946 -0.780972 0.585306
vn 0.424934 -0.868385 0.255616
vn 0.387469 -0.691364 0.609823
vn 0.304720 -0.415247 0.857156
vn 0.399098 -0.029328 0.916439
vn 0.220172 -0.065925 0.973231
vn 0.174558 0.238501 0.955326
vn 0.184962 0.592424 0.784107
vn 0.640573 0.048439 0.766369
vn 0.842427 0.157960 0.515136
vn 0.966330 -0.144646 0.212802
vn 0.944525 0.244042 0.219811
vn 0.842505 0.482618 0.239301
vn 0.666100 0.706562 0.238918
vn 0.951565 0.280860 -0.125069
vn 0.828739 0.234913 -0.507944
vn 0.556941 0.180095 -0.810791
vn 0.489324 0.462264 -0.739510
vn 0.387732 0.912583 0.129830
vn 0.841680 -0.525332 0.124906
vn 0.609862 -0.792313 -0.017564
vn 0.409789 -0.904158 -0.120711
vn 0.412804 -0.805654 -0.424870
vn 0.413240 -0.555494 -0.721567
s 1
g MitocondriaInside_low:Mitocondria__low
usemtl initialShadingGroup
f 1/77/1 2/72/2 3/62/3 4/71/4
f 1/77/1 4/71/4 5/119/5 6/126/6
f 1/77/1 6/126/6 7/145/7 2/72/2
f 8/79/8 9/80/9 10/81/10 11/76/11
f 8/79/8 12/75/12 13/82/13 9/80/9
f 8/79/8 11/76/11 14/67/14 12/75/12
f 15/27/15 16/19/16 17/18/17 18/28/18
f 15/27/15 19/36/19 20/29/20 16/19/16
f 15/27/15 18/28/18 21/37/21 19/36/19
f 22/1/22 23/2/23 24/3/24 25/4/25
f 22/1/22 26/5/26 27/6/27 23/2/23
f 22/1/22 25/4/25 28/11/28 26/5/26
f 29/25/29 30/26/30 31/17/31 32/16/32
f 29/25/29 33/31/33 34/35/34 30/26/30
f 35/44/35 36/40/36 37/32/37 38/39/38
f 35/44/35 38/39/38 39/43/39 40/46/40
f 35/44/35 40/46/40 41/45/41 36/40/36
f 42/66/42 43/74/43 12/75/12 14/67/14
f 42/66/42 44/55/44 45/65/45 43/74/43
f 42/66/42 14/67/14 46/56/46 44/55/44
f 47/59/47 48/58/48 49/70/49 50/121/50
f 47/59/47 50/121/50 51/61/51 52/51/52
f 47/59/47 52/51/52 53/47/53 48/58/48
f 53/47/53 52/51/52 54/52/54 55/48/55
f 53/47/53 55/48/55 56/49/56 57/50/57
f 53/47/53 57/50/57 58/57/58 48/58/48
f 58/57/58 59/68/59 60/85/60 61/69/61
f 58/57/58 61/69/61 49/70/49 48/58/48
f 58/57/58 57/50/57 46/56/46 59/68/59
f 61/69/61 60/85/60 62/89/62 63/172/63
f 61/69/61 63/172/63 64/171/64 49/70/49
f 64/171/64 63/172/63 65/170/65 66/169/66
f 64/171/64 66/169/66 67/115/67 68/114/68
f 64/171/64 68/114/68 50/121/50 49/70/49
f 68/114/68 67/115/67 69/111/69 70/110/70
f 68/114/68 70/110/70 51/61/51 50/121/50
f 70/110/70 69/111/69 71/112/71 72/113/72
f 70/110/70 72/113/72 73/60/73 51/61/51
f 73/60/73 72/113/72 5/119/5 4/71/4
f 73/60/73 4/71/4 3/62/3 54/52/54
f 73/60/73 54/52/54 52/51/52 51/61/51
f 72/113/72 71/112/71 74/118/74 5/119/5
f 74/118/74 71/112/71 75/117/75 76/124/76
f 74/118/74 76/124/76 77/131/77 78/125/78
f 74/118/74 78/125/78 6/126/6 5/119/5
f 78/125/78 77/131/77 79/137/79 80/138/80
f 78/125/78 80/138/80 7/145/7 6/126/6
f 80/138/80 79/137/79 81/149/81 82/147/82
f 80/138/80 82/147/82 83/146/83 7/145/7
f 83/146/83 82/147/82 84/150/84 85/148/85
f 83/146/83 85/148/85 86/64/86 87/63/87
f 83/146/83 87/63/87 2/72/2 7/145/7
f 87/63/87 86/64/86 88/54/88 89/53/89
f 87/63/87 89/53/89 3/62/3 2/72/2
f 89/53/89 88/54/88 56/49/56 55/48/55
f 89/53/89 55/48/55 54/52/54 3/62/3
f 88/54/88 86/64/86 90/73/90 45/65/45
f 88/54/88 45/65/45 44/55/44 56/49/56
f 90/73/90 86/64/86 85/148/85 91/151/91
f 90/73/90 91/95/91 92/90/92 93/78/93
f 90/73/90 93/78/93 43/74/43 45/65/45
f 93/78/93 92/90/92 94/86/94 13/82/13
f 93/78/93 13/82/13 12/75/12 43/74/43
f 94/86/94 92/90/92 95/96/95 96/91/96
f 94/86/94 96/91/96 97/87/97 98/83/98
f 94/86/94 98/83/98 9/80/9 13/82/13
f 98/83/98 97/87/97 99/88/99 100/84/100
f 98/83/98 100/84/100 10/81/10 9/80/9
f 100/84/100 99/88/99 101/94/101 62/89/62
f 100/84/100 62/89/62 60/85/60 10/81/10
f 101/94/101 99/88/99 102/93/102 103/100/103
f 101/94/101 103/100/103 104/168/104 65/170/65
f 101/94/101 65/170/65 63/172/63 62/89/62
f 104/168/104 103/100/103 105/105/105 106/166/106
f 104/168/104 106/166/106 107/165/107 108/167/108
f 104/168/104 108/167/108 66/169/66 65/170/65
f 108/167/108 107/165/107 109/127/109 110/120/110
f 108/167/108 110/120/110 67/115/67 66/169/66
f 110/120/110 109/127/109 111/122/111 112/116/112
f 110/120/110 112/116/112 69/111/69 67/115/67
f 112/116/112 111/122/111 113/123/113 75/117/75
f 112/116/112 75/117/75 71/112/71 69/111/69
f 113/123/113 111/122/111 114/128/114 115/129/115
f 113/123/113 115/129/115 116/135/116 117/130/117
f 113/123/113 117/130/117 76/124/76 75/117/75
f 117/130/117 116/135/116 118/140/118 119/136/119
f 117/130/117 119/136/119 77/131/77 76/124/76
f 119/136/119 118/140/118 120/143/120 121/141/121
f 119/136/119 121/141/121 79/137/79 77/131/77
f 121/141/121 120/143/120 122/155/122 123/152/123
f 121/141/121 123/152/123 81/149/81 79/137/79
f 123/152/123 122/155/122 124/159/124 125/156/125
f 123/152/123 125/156/125 126/153/126 81/149/81
f 126/153/126 125/156/125 127/160/127 128/157/128
f 126/153/126 128/157/128 129/154/129 84/150/84
f 126/153/126 84/150/84 82/147/82 81/149/81
f 129/101/129 128/106/128 130/102/130 95/96/95
f 129/101/129 95/96/95 92/90/92 91/95/91
f 129/154/129 91/151/91 85/148/85 84/150/84
f 130/102/130 128/106/128 127/109/127 131/107/131
f 130/102/130 131/107/131 132/103/132 133/97/133
f 130/102/130 133/97/133 96/91/96 95/96/95
f 133/97/133 132/103/132 134/98/134 135/92/135
f 133/97/133 135/92/135 97/87/97 96/91/96
f 135/92/135 134/98/134 136/99/136 102/93/102
f 135/92/135 102/93/102 99/88/99 97/87/97
f 136/99/136 134/98/134 137/38/137 138/104/138
f 136/99/136 138/104/138 139/108/139 105/105/105
f 136/99/136 105/105/105 103/100/103 102/93/102
f 139/108/139 138/104/138 19/36/19 21/37/21
f 139/108/139 21/37/21 140/42/140 141/164/141
f 139/108/139 141/164/141 106/166/106 105/105/105
f 141/164/141 140/42/140 41/45/41 142/163/142
f 141/164/141 142/163/142 107/165/107 106/166/106
f 142/163/142 41/45/41 40/46/40 143/132/143
f 142/163/142 143/132/143 109/127/109 107/165/107
f 143/132/143 40/46/40 39/134/39 114/128/114
f 143/132/143 114/128/114 111/122/111 109/127/109
f 140/42/140 21/37/21 18/28/18 144/34/144
f 140/42/140 144/34/144 36/40/36 41/45/41
f 144/34/144 18/28/18 17/18/17 145/24/145
f 144/34/144 145/24/145 37/32/37 36/40/36
f 145/24/145 17/18/17 146/9/146 147/15/147
f 145/24/145 147/15/147 148/23/148 37/32/37
f 148/23/148 149/33/149 38/39/38 37/32/37
f 148/23/148 147/15/147 150/7/150 31/17/31
f 148/23/148 31/17/31 30/26/30 149/33/149
f 150/7/150 147/15/147 146/9/146 24/3/24
f 150/7/150 24/3/24 23/2/23 151/8/151
f 150/7/150 151/8/151 32/16/32 31/17/31
f 151/8/151 23/2/23 27/6/27 152/14/152
f 151/8/151 152/14/152 153/22/153 32/16/32
f 153/22/153 33/31/33 29/25/29 32/16/32
f 153/144/153 152/158/152 122/155/122 120/143/120
f 153/144/153 120/143/120 118/140/118 33/142/33
f 152/158/152 27/161/27 124/159/124 122/155/122
f 149/33/149 30/26/30 34/35/34 154/41/154
f 149/33/149 154/41/154 39/43/39 38/39/38
f 154/133/154 34/139/34 116/135/116 115/129/115
f 154/133/154 115/129/115 114/128/114 39/134/39
f 146/9/146 17/18/17 16/19/16 155/10/155
f 146/9/146 155/10/155 25/4/25 24/3/24
f 155/10/155 16/19/16 20/29/20 156/20/156
f 155/10/155 156/20/156 28/11/28 25/4/25
f 156/20/156 20/29/20 137/38/137 157/30/157
f 156/20/156 157/30/157 158/21/158 28/11/28
f 158/21/158 159/12/159 26/5/26 28/11/28
f 158/21/158 157/30/157 132/103/132 131/107/131
f 158/21/158 131/107/131 127/109/127 159/12/159
f 159/12/159 124/13/124 27/6/27 26/5/26
f 159/162/159 127/160/127 125/156/125 124/159/124
f 157/30/157 137/38/137 134/98/134 132/103/132
f 138/104/138 137/38/137 20/29/20 19/36/19
f 118/140/118 116/135/116 34/139/34 33/142/33
f 60/85/60 59/68/59 11/76/11 10/81/10
f 59/68/59 46/56/46 14/67/14 11/76/11
f 57/50/57 56/49/56 44/55/44 46/56/46
