# This file uses centimeters as units for non-parametric coordinates.

mtllib WhiteCell_lowNew.mtl
g default
v -0.550137 -0.547322 0.564224
v 0.565509 -0.550743 0.574964
v -0.563047 0.573501 0.566204
v 0.561742 0.570133 0.569911
v -0.542534 0.571527 -0.568677
v 0.572451 0.569968 -0.558876
v -0.565058 -0.561235 -0.552296
v 0.558240 -0.561091 -0.588483
v 0.697569 0.003351 0.701013
v -0.001350 0.686894 0.678971
v -0.652036 0.714142 0.074598
v 0.679176 0.728057 0.094015
v 0.001445 0.682245 -0.682020
v -0.655414 -0.069293 -0.694167
v 0.684061 -0.025179 -0.685631
v -0.006860 -0.674041 -0.696299
v -0.692269 -0.698577 0.046103
v 0.684182 -0.691076 0.111794
v 0.005865 -0.671296 0.688813
v -0.666713 0.008246 0.672013
v 0.003718 0.008003 0.951362
v 0.001321 0.949052 0.035715
v -0.000580 -0.010168 -0.928263
v -0.002224 -0.956569 0.045036
v 0.956893 -0.083980 0.129279
v -0.926502 -0.087208 0.089983
v 0.008039 -0.362693 0.876552
v -0.365006 0.010253 0.866740
v 0.344511 -0.630352 0.651061
v 0.642172 -0.330091 0.649193
v 0.381635 0.005017 0.881373
v -0.002988 0.378371 0.882143
v 0.639203 0.341033 0.647446
v 0.336065 0.651606 0.645868
v -0.625461 0.346804 0.631188
v -0.334846 0.649743 0.634333
v -0.612889 0.653911 0.355631
v -0.003843 0.882988 0.384158
v -0.370438 0.886492 0.020803
v 0.625982 0.665343 0.373100
v 0.372457 0.895238 0.048918
v 0.002693 0.887745 -0.383695
v 0.658423 0.654254 -0.340164
v 0.342114 0.651462 -0.639946
v -0.600969 0.654115 -0.404805
v -0.336762 0.644628 -0.643695
v -0.604571 0.396790 -0.642577
v 0.001701 0.371062 -0.863442
v -0.375905 -0.010975 -0.865369
v 0.652230 0.346034 -0.638981
v 0.374940 -0.007732 -0.869085
v -0.002162 -0.388012 -0.906373
v 0.638667 -0.348582 -0.663267
v 0.332490 -0.626295 -0.658453
v -0.623339 -0.348176 -0.635949
v -0.341695 -0.643193 -0.641088
v -0.637157 -0.637917 -0.338261
v -0.004106 -0.874968 -0.420367
v -0.372119 -0.880253 0.017613
v 0.632253 -0.636582 -0.396246
v 0.377765 -0.902162 0.100211
v -0.000861 -0.860636 0.393549
v 0.646996 -0.638416 0.377810
v -0.643588 -0.645338 0.362643
v 0.875988 -0.398194 0.120133
v 0.873259 -0.065530 0.431380
v 0.872330 -0.059211 -0.420705
v 0.905397 0.493684 0.124268
v -0.845642 -0.389731 0.077447
v -0.840124 -0.091817 -0.457545
v -0.864743 -0.062740 0.410246
v -0.843099 0.466136 0.095089
v -0.332499 -0.623865 0.639034
v -0.617376 -0.323673 0.629186
v -0.361291 -0.357109 0.830993
v 0.362108 -0.349034 0.811228
v 0.359674 0.366904 0.817757
v -0.354911 0.361838 0.799787
v -0.356278 0.817866 0.363301
v 0.354661 0.821929 0.374221
v 0.366892 0.840501 -0.363069
v -0.351372 0.819168 -0.406295
v -0.353396 0.388450 -0.798856
v 0.365098 0.362219 -0.813366
v 0.364124 -0.367610 -0.841076
v -0.353158 -0.363186 -0.803072
v -0.368189 -0.830042 -0.369674
v 0.353520 -0.799336 -0.422244
v 0.365699 -0.815292 0.396126
v -0.352287 -0.798222 0.360651
v 0.807589 -0.375133 0.405640
v 0.795818 -0.369169 -0.412672
v 0.822502 0.383874 -0.374800
v 0.795856 0.440918 0.418688
v -0.771175 -0.380297 -0.414877
v -0.782454 -0.368620 0.383476
v -0.771152 0.427535 0.386118
v -0.769456 0.446788 -0.444645
v -0.655990 0.169412 0.661199
v -0.368044 0.181022 0.852600
v -0.002434 0.192242 0.944138
v 0.378421 0.184443 0.867512
v 0.677084 0.169066 0.683394
v 0.860520 0.191447 0.426952
v 0.979215 0.205129 0.135765
v 0.869195 0.179519 -0.403534
v 0.682724 0.166796 -0.672756
v 0.373907 0.177289 -0.853192
v 0.000873 0.180418 -0.911583
v -0.372356 0.179399 -0.853969
v -0.648128 0.178948 -0.686184
v -0.846837 0.185059 -0.463462
v -0.922842 0.191534 0.090357
v -0.838724 0.187816 0.397389
v -0.646994 0.704764 -0.176821
v -0.364327 0.881539 -0.178290
v 0.002433 0.941979 -0.163827
v 0.377043 0.885958 -0.154366
v 0.680922 0.709666 -0.149147
v 0.869502 0.450389 -0.154249
v 0.937466 0.195124 -0.156053
v 0.944646 -0.071399 -0.155962
v 0.873264 -0.394043 -0.157293
v 0.681948 -0.689809 -0.158705
v 0.368945 -0.872013 -0.164497
v -0.004604 -0.943817 -0.166984
v -0.372654 -0.870017 -0.148711
v -0.672913 -0.675934 -0.143849
v -0.845411 -0.391543 -0.175310
v -0.913390 -0.088035 -0.185343
v -0.947126 0.186460 -0.189288
v -0.838750 0.464451 -0.183015
vt 0.246134 0.574321
vt 0.234106 0.543598
vt 0.277113 0.541555
vt 0.279161 0.579743
vt 0.226558 0.500579
vt 0.275308 0.499743
vt 0.320326 0.500461
vt 0.320338 0.543135
vt 0.320414 0.583812
vt 0.236256 0.457900
vt 0.277885 0.458637
vt 0.248466 0.427541
vt 0.280010 0.421483
vt 0.319866 0.417148
vt 0.319881 0.457305
vt 0.367739 0.458826
vt 0.369386 0.501232
vt 0.365366 0.419990
vt 0.400715 0.426479
vt 0.412504 0.458103
vt 0.419757 0.500851
vt 0.367911 0.543162
vt 0.366550 0.581145
vt 0.413275 0.543612
vt 0.400879 0.574842
vt 0.461932 0.561152
vt 0.425313 0.597813
vt 0.485317 0.501310
vt 0.584482 0.500655
vt 0.513941 0.600648
vt 0.450744 0.634048
vt 0.460917 0.441109
vt 0.424596 0.404113
vt 0.448055 0.368897
vt 0.511127 0.404913
vt 0.538144 0.301363
vt 0.643243 0.694077
vt 0.460081 0.289039
vt 0.458513 0.232729
vt 0.510875 0.202688
vt 0.596595 0.148864
vt 0.539084 0.711835
vt 0.468978 0.725277
vt 0.509954 0.799978
vt 0.463629 0.773477
vt 0.437679 0.862522
vt 0.415679 0.797377
vt 0.479632 0.041441
vt 0.318908 0.001992
vt 0.319975 0.887059
vt 0.306011 0.812056
vt 0.429071 0.136842
vt 0.402361 0.207658
vt 0.316258 0.194504
vt 0.320902 0.113810
vt 0.215607 0.135408
vt 0.164971 0.962567
vt 0.241463 0.203962
vt 0.187797 0.226774
vt 0.138516 0.195553
vt 0.049290 0.143780
vt 0.213018 0.865551
vt 0.239093 0.795781
vt 0.136039 0.800647
vt 0.186114 0.768695
vt 0.109260 0.705144
vt 0.185064 0.712655
vt 0.001284 0.288881
vt 0.059420 0.501596
vt 0.131711 0.604183
vt 0.201744 0.640032
vt 0.110463 0.282755
vt 0.185695 0.278012
vt 0.206070 0.369284
vt 0.142578 0.410750
vt 0.188846 0.441886
vt 0.162262 0.501546
vt 0.228117 0.403341
vt 0.184095 0.562442
vt 0.225372 0.600075
vt 0.269717 0.388262
vt 0.258366 0.349979
vt 0.308935 0.343442
vt 0.312297 0.384009
vt 0.248114 0.263626
vt 0.310043 0.257218
vt 0.396262 0.269972
vt 0.395683 0.351465
vt 0.382272 0.390033
vt 0.242876 0.739837
vt 0.256038 0.657043
vt 0.306559 0.663585
vt 0.303341 0.752752
vt 0.268306 0.615287
vt 0.311726 0.619345
vt 0.382367 0.612492
vt 0.396648 0.652643
vt 0.410500 0.742256
vt 0.002731 0.716499
vt 0.054131 0.858619
vt 0.162427 0.039601
vt 0.321136 0.998008
vt 0.479876 0.958450
vt 0.597827 0.851873
vt 0.643054 0.306472
vt 0.342139 0.583645
vt 0.342926 0.543983
vt 0.343829 0.501192
vt 0.343017 0.457352
vt 0.341479 0.417560
vt 0.346847 0.384422
vt 0.351880 0.345282
vt 0.355227 0.260656
vt 0.359937 0.198236
vt 0.375332 0.119997
vt 0.401358 0.987004
vt 0.399885 0.011413
vt 0.375371 0.882323
vt 0.363046 0.810184
vt 0.356260 0.751216
vt 0.350775 0.661820
vt 0.346427 0.618481
vt 0.464116 0.676050
vt 0.532927 0.646024
vt 0.625837 0.413134
vt 0.625427 0.588769
vt 0.529507 0.360065
vt 0.459393 0.329798
vt 0.399898 0.311667
vt 0.354011 0.304720
vt 0.308896 0.302947
vt 0.252063 0.309982
vt 0.191637 0.326933
vt 0.115692 0.355982
vt 0.015560 0.595505
vt 0.016403 0.408742
vt 0.117491 0.642923
vt 0.191706 0.672244
vt 0.248771 0.695592
vt 0.304936 0.705409
vt 0.352003 0.703074
vt 0.404051 0.694306
vn -0.565171 -0.556954 0.608592
vn -0.285512 -0.678826 0.676520
vn -0.341230 -0.315986 0.885277
vn -0.663659 -0.273404 0.696281
vn -0.013753 -0.697256 0.716690
vn 0.004081 -0.346262 0.938129
vn -0.003328 -0.097034 0.995275
vn -0.373154 -0.076584 0.924603
vn -0.689530 -0.069889 0.720877
vn 0.267059 -0.652170 0.709474
vn 0.309393 -0.327105 0.892904
vn 0.548368 -0.550221 0.629721
vn 0.626954 -0.302898 0.717762
vn 0.668863 -0.087514 0.738217
vn 0.337294 -0.104929 0.935533
vn -0.021755 0.183577 0.982765
vn 0.346498 0.189687 0.918672
vn 0.302199 0.424274 0.853620
vn -0.021622 0.449319 0.893110
vn 0.674535 0.181300 0.715635
vn 0.611236 0.366161 0.701653
vn 0.521629 0.577789 0.627744
vn 0.265372 0.670822 0.692514
vn -0.016072 0.698260 0.715664
vn -0.691784 0.169067 0.702034
vn -0.384334 0.174299 0.906591
vn -0.328723 0.406326 0.852549
vn -0.642406 0.343925 0.684858
vn -0.287803 0.665730 0.688457
vn -0.558999 0.565408 0.606493
vn -0.308805 0.886838 0.343740
vn -0.625920 0.704790 0.333909
vn -0.015276 0.928994 0.369778
vn -0.012770 0.993516 0.112976
vn -0.338262 0.935527 0.101821
vn -0.655863 0.745870 0.116284
vn 0.279759 0.887844 0.365333
vn 0.566752 0.728452 0.384904
vn 0.616081 0.778969 0.116841
vn 0.306870 0.944927 0.113767
vn -0.007846 0.989609 -0.143569
vn 0.327515 0.934197 -0.141455
vn 0.296787 0.858612 -0.417975
vn 0.001158 0.898349 -0.439281
vn 0.651135 0.738947 -0.173147
vn 0.639910 0.659179 -0.394966
vn 0.558932 0.569582 -0.602638
vn 0.268639 0.660704 -0.700931
vn 0.005778 0.679466 -0.733684
vn -0.661128 0.736073 -0.145281
vn -0.342142 0.926718 -0.155349
vn -0.291119 0.853855 -0.431488
vn -0.601853 0.699004 -0.386221
vn -0.248130 0.656051 -0.712761
vn -0.508697 0.584079 -0.632518
vn -0.282426 0.398698 -0.872511
vn -0.583027 0.369972 -0.723326
vn 0.000025 0.409121 -0.912480
vn -0.006013 0.163510 -0.986523
vn -0.337591 0.162791 -0.927109
vn -0.644202 0.139995 -0.751934
vn 0.291665 0.391973 -0.872519
vn 0.634054 0.364549 -0.681968
vn 0.677466 0.143733 -0.721374
vn 0.328611 0.153239 -0.931951
vn -0.019259 -0.034979 -0.999202
vn 0.335028 -0.027744 -0.941799
vn 0.318158 -0.294470 -0.901145
vn -0.027063 -0.324740 -0.945416
vn 0.677419 -0.062804 -0.732911
vn 0.651192 -0.276085 -0.706913
vn 0.548297 -0.582662 -0.599896
vn 0.271217 -0.673185 -0.687941
vn -0.020168 -0.696357 -0.717412
vn -0.645037 -0.116342 -0.755243
vn -0.348749 -0.067718 -0.934766
vn -0.341127 -0.315524 -0.885481
vn -0.627077 -0.320180 -0.710112
vn -0.316859 -0.656660 -0.684396
vn -0.580738 -0.559163 -0.591675
vn -0.333997 -0.855642 -0.395377
vn -0.671084 -0.652331 -0.352294
vn 0.003382 -0.896401 -0.443232
vn 0.011979 -0.985215 -0.170902
vn -0.355116 -0.921848 -0.155209
vn -0.720282 -0.675431 -0.158072
vn 0.306770 -0.851966 -0.424319
vn 0.642268 -0.664741 -0.381589
vn 0.689870 -0.707282 -0.154377
vn 0.353723 -0.918914 -0.174573
vn -0.028252 -0.991540 0.126689
vn 0.331582 -0.935955 0.118495
vn 0.288071 -0.868643 0.403080
vn -0.044375 -0.912771 0.406054
vn 0.697389 -0.709209 0.103305
vn 0.656732 -0.661357 0.362369
vn -0.704324 -0.701909 0.106067
vn -0.340059 -0.932730 0.119894
vn -0.309462 -0.878120 0.364881
vn -0.655249 -0.669694 0.349511
vn 0.845542 -0.357169 0.396850
vn 0.912056 -0.394367 0.112375
vn 0.982872 -0.139307 0.120646
vn 0.892729 -0.122864 0.433520
vn 0.909631 -0.387168 -0.150572
vn 0.846051 -0.335766 -0.414077
vn 0.894329 -0.102746 -0.435453
vn 0.978365 -0.126227 -0.163914
vn 0.873899 0.440591 -0.205379
vn 0.974863 0.120550 -0.187376
vn 0.893488 0.137561 -0.427499
vn 0.824428 0.385527 -0.414353
vn 0.881076 0.139617 0.451899
vn 0.777154 0.431820 0.457780
vn 0.984636 0.118821 0.127960
vn 0.869526 0.478456 0.122490
vn -0.838030 -0.358765 -0.411087
vn -0.918298 -0.363983 -0.155708
vn -0.976906 -0.154929 -0.147142
vn -0.874996 -0.145079 -0.461882
vn -0.859452 -0.337809 0.383702
vn -0.926478 -0.362058 0.102728
vn -0.904652 -0.113972 0.410627
vn -0.983609 -0.136760 0.117516
vn -0.978340 0.154886 0.137338
vn -0.905042 0.170037 0.389853
vn -0.833220 0.406288 0.375066
vn -0.876081 0.462638 0.135826
vn -0.868977 0.129265 -0.477671
vn -0.784759 0.439270 -0.437260
vn -0.981190 0.132464 -0.140427
vn -0.868770 0.476145 -0.136101
s 1
g WhiteCell_Low
usemtl initialShadingGroup
f 1/1/1 73/2/2 75/3/3 74/4/4
f 73/2/2 19/5/5 27/6/6 75/3/3
f 75/3/3 27/6/6 21/7/7 28/8/8
f 74/4/4 75/3/3 28/8/8 20/9/9
f 19/5/5 29/10/10 76/11/11 27/6/6
f 29/10/10 2/12/12 30/13/13 76/11/11
f 76/11/11 30/13/13 9/14/14 31/15/15
f 27/6/6 76/11/11 31/15/15 21/7/7
f 101/108/16 102/109/17 77/16/18 32/17/19
f 102/109/17 103/110/20 33/18/21 77/16/18
f 77/16/18 33/18/21 4/19/22 34/20/23
f 32/17/19 77/16/18 34/20/23 10/21/24
f 99/106/25 100/107/26 78/22/27 35/23/28
f 100/107/26 101/108/16 32/17/19 78/22/27
f 78/22/27 32/17/19 10/21/24 36/24/29
f 35/23/28 78/22/27 36/24/29 3/25/30
f 3/25/30 36/24/29 79/26/31 37/27/32
f 36/24/29 10/21/24 38/28/33 79/26/31
f 79/26/31 38/28/33 22/29/34 39/30/35
f 37/27/32 79/26/31 39/30/35 11/31/36
f 10/21/24 34/20/23 80/32/37 38/28/33
f 34/20/23 4/19/22 40/33/38 80/32/37
f 80/32/37 40/33/38 12/34/39 41/35/40
f 38/28/33 80/32/37 41/35/40 22/29/34
f 117/125/41 118/127/42 81/36/43 42/105/44
f 118/127/42 119/128/45 43/38/46 81/36/43
f 81/36/43 43/38/46 6/39/47 44/40/48
f 42/105/44 81/36/43 44/40/48 13/41/49
f 115/123/50 116/124/51 82/42/52 45/43/53
f 116/124/51 117/126/41 42/37/44 82/42/52
f 82/42/52 42/37/44 13/104/49 46/44/54
f 45/43/53 82/42/52 46/44/54 5/45/55
f 5/45/55 46/44/54 83/46/56 47/47/57
f 46/44/54 13/104/49 48/103/58 83/46/56
f 83/46/56 48/103/58 109/116/59 110/118/60
f 47/47/57 83/46/56 110/118/60 111/119/61
f 13/41/49 44/40/48 84/52/62 48/48/58
f 44/40/48 6/39/47 50/53/63 84/52/62
f 84/52/62 50/53/63 107/114/64 108/115/65
f 48/48/58 84/52/62 108/115/65 109/117/59
f 23/49/66 51/55/67 85/56/68 52/101/69
f 51/55/67 15/54/70 53/58/71 85/56/68
f 85/56/68 53/58/71 8/59/72 54/60/73
f 52/101/69 85/56/68 54/60/73 16/61/74
f 14/51/75 49/50/76 86/62/77 55/63/78
f 49/50/76 23/102/66 52/57/69 86/62/77
f 86/62/77 52/57/69 16/100/74 56/64/79
f 55/63/78 86/62/77 56/64/79 7/65/80
f 7/65/80 56/64/79 87/66/81 57/67/82
f 56/64/79 16/100/74 58/99/83 87/66/81
f 87/66/81 58/99/83 126/135/84 127/137/85
f 57/67/82 87/66/81 127/137/85 128/138/86
f 16/61/74 54/60/73 88/72/87 58/68/83
f 54/60/73 8/59/72 60/73/88 88/72/87
f 88/72/87 60/73/88 124/133/89 125/134/90
f 58/68/83 88/72/87 125/134/90 126/136/84
f 24/69/91 61/75/92 89/76/93 62/77/94
f 61/75/92 18/74/95 63/78/96 89/76/93
f 89/76/93 63/78/96 2/12/12 29/10/10
f 62/77/94 89/76/93 29/10/10 19/5/5
f 17/71/97 59/70/98 90/79/99 64/80/100
f 59/70/98 24/69/91 62/77/94 90/79/99
f 90/79/99 62/77/94 19/5/5 73/2/2
f 64/80/100 90/79/99 73/2/2 1/1/1
f 2/12/12 63/78/96 91/81/101 30/13/13
f 63/78/96 18/74/95 65/82/102 91/81/101
f 91/81/101 65/82/102 25/83/103 66/84/104
f 30/13/13 91/81/101 66/84/104 9/14/14
f 123/132/105 124/133/89 60/73/88 92/85/106
f 60/73/88 8/59/72 53/58/71 92/85/106
f 92/85/106 53/58/71 15/54/70 67/86/107
f 122/131/108 123/132/105 92/85/106 67/86/107
f 120/129/109 121/130/110 106/113/111 93/87/112
f 106/113/111 107/114/64 50/53/63 93/87/112
f 93/87/112 50/53/63 6/39/47 43/38/46
f 119/128/45 120/129/109 93/87/112 43/38/46
f 103/110/20 104/111/113 94/89/114 33/18/21
f 104/111/113 105/112/115 68/88/116 94/89/114
f 94/89/114 68/88/116 12/34/39 40/33/38
f 33/18/21 94/89/114 40/33/38 4/19/22
f 7/65/80 57/67/82 95/90/117 55/63/78
f 57/67/82 128/138/86 129/139/118 95/90/117
f 95/90/117 129/139/118 130/140/119 70/93/120
f 55/63/78 95/90/117 70/93/120 14/51/75
f 17/71/97 64/80/100 96/94/121 69/91/122
f 64/80/100 1/1/1 74/4/4 96/94/121
f 96/94/121 74/4/4 20/9/9 71/95/123
f 69/91/122 96/94/121 71/95/123 26/92/124
f 113/121/125 114/122/126 97/96/127 72/97/128
f 114/122/126 99/106/25 35/23/28 97/96/127
f 97/96/127 35/23/28 3/25/30 37/27/32
f 72/97/128 97/96/127 37/27/32 11/31/36
f 111/119/61 112/120/129 98/98/130 47/47/57
f 112/120/129 131/141/131 132/142/132 98/98/130
f 98/98/130 132/142/132 115/123/50 45/43/53
f 47/47/57 98/98/130 45/43/53 5/45/55
f 20/9/9 28/8/8 100/107/26 99/106/25
f 28/8/8 21/7/7 101/108/16 100/107/26
f 21/7/7 31/15/15 102/109/17 101/108/16
f 31/15/15 9/14/14 103/110/20 102/109/17
f 9/14/14 66/84/104 104/111/113 103/110/20
f 66/84/104 25/83/103 105/112/115 104/111/113
f 121/130/110 122/131/108 67/86/107 106/113/111
f 67/86/107 15/54/70 107/114/64 106/113/111
f 108/115/65 107/114/64 15/54/70 51/55/67
f 109/117/59 108/115/65 51/55/67 23/49/66
f 110/118/60 109/116/59 23/102/66 49/50/76
f 111/119/61 110/118/60 49/50/76 14/51/75
f 14/51/75 70/93/120 112/120/129 111/119/61
f 70/93/120 130/140/119 131/141/131 112/120/129
f 26/92/124 71/95/123 114/122/126 113/121/125
f 71/95/123 20/9/9 99/106/25 114/122/126
f 11/31/36 39/30/35 116/124/51 115/123/50
f 39/30/35 22/29/34 117/126/41 116/124/51
f 22/29/34 41/35/40 118/127/42 117/125/41
f 41/35/40 12/34/39 119/128/45 118/127/42
f 68/88/116 120/129/109 119/128/45 12/34/39
f 105/112/115 121/130/110 120/129/109 68/88/116
f 25/83/103 122/131/108 121/130/110 105/112/115
f 65/82/102 123/132/105 122/131/108 25/83/103
f 18/74/95 124/133/89 123/132/105 65/82/102
f 125/134/90 124/133/89 18/74/95 61/75/92
f 126/136/84 125/134/90 61/75/92 24/69/91
f 127/137/85 126/135/84 24/69/91 59/70/98
f 128/138/86 127/137/85 59/70/98 17/71/97
f 129/139/118 128/138/86 17/71/97 69/91/122
f 130/140/119 129/139/118 69/91/122 26/92/124
f 131/141/131 130/140/119 26/92/124 113/121/125
f 132/142/132 131/141/131 113/121/125 72/97/128
f 115/123/50 132/142/132 72/97/128 11/31/36
