# This file uses centimeters as units for non-parametric coordinates.

mtllib Capsules.mtl
g default
v -0.220297 -1.261446 -0.253341
v -0.336745 -1.261446 -0.481883
v -0.518117 -1.261446 -0.663255
v -0.746659 -1.261446 -0.779703
v -1.000000 -1.261446 -0.819828
v -1.253341 -1.261446 -0.779703
v -1.481883 -1.261446 -0.663255
v -1.663255 -1.261446 -0.481883
v -1.779703 -1.261446 -0.253341
v -1.819828 -1.261446 0.000000
v -1.779703 -1.261446 0.253341
v -1.663255 -1.261446 0.481883
v -1.481883 -1.261446 0.663255
v -1.253341 -1.261446 0.779703
v -1.000000 -1.261446 0.819828
v -0.746659 -1.261446 0.779703
v -0.518117 -1.261446 0.663255
v -0.336745 -1.261446 0.481883
v -0.220297 -1.261446 0.253341
v -0.180172 -1.261446 0.000000
v -0.220297 1.142191 -0.253341
v -0.336745 1.142191 -0.481883
v -0.518117 1.142191 -0.663255
v -0.746659 1.142191 -0.779703
v -1.000000 1.142191 -0.819828
v -1.253341 1.142191 -0.779703
v -1.481883 1.142191 -0.663255
v -1.663255 1.142191 -0.481883
v -1.779703 1.142191 -0.253341
v -1.819828 1.142191 0.000000
v -1.779703 1.142191 0.253341
v -1.663255 1.142191 0.481883
v -1.481883 1.142191 0.663255
v -1.253341 1.142191 0.779703
v -1.000000 1.142191 0.819828
v -0.746659 1.142191 0.779703
v -0.518117 1.142191 0.663255
v -0.336745 1.142191 0.481883
v -0.220297 1.142191 0.253341
v -0.180172 1.142191 0.000000
v -0.407578 1.471420 -0.192489
v -0.496056 1.471420 -0.366137
v -0.633863 1.471420 -0.503944
v -0.807510 1.471420 -0.592421
v -1.000000 1.471420 -0.622909
v -1.192489 1.471420 -0.592421
v -1.366137 1.471420 -0.503944
v -1.503944 1.471420 -0.366136
v -1.592421 1.471420 -0.192489
v -1.622909 1.471420 0.000000
v -1.592421 1.471420 0.192490
v -1.503944 1.471420 0.366137
v -1.366136 1.471420 0.503944
v -1.192489 1.471420 0.592421
v -1.000000 1.471420 0.622909
v -0.807511 1.471420 0.592421
v -0.633863 1.471420 0.503944
v -0.496056 1.471420 0.366137
v -0.407579 1.471420 0.192489
v -0.377091 1.471420 0.000000
v -0.764018 1.676598 -0.076675
v -0.799262 1.676598 -0.145845
v -1.000000 1.676598 0.000000
v -0.854155 1.676598 -0.200738
v -0.923325 1.676598 -0.235982
v -1.000000 1.676598 -0.248126
v -1.076675 1.676598 -0.235982
v -1.145845 1.676598 -0.200738
v -1.200738 1.676598 -0.145845
v -1.235982 1.676598 -0.076675
v -1.248126 1.676598 0.000000
v -1.235982 1.676598 0.076675
v -1.200738 1.676598 0.145845
v -1.145845 1.676598 0.200738
v -1.076675 1.676598 0.235982
v -1.000000 1.676598 0.248126
v -0.923325 1.676598 0.235982
v -0.854155 1.676598 0.200738
v -0.799262 1.676598 0.145845
v -0.764018 1.676598 0.076675
v -0.751874 1.676598 0.000000
v -0.407937 -1.492145 -0.192373
v -0.496361 -1.492145 -0.365915
v -0.634085 -1.492145 -0.503639
v -0.807627 -1.492145 -0.592062
v -1.000000 -1.492145 -0.622531
v -1.192373 -1.492145 -0.592062
v -1.365915 -1.492145 -0.503638
v -1.503638 -1.492145 -0.365915
v -1.592062 -1.492145 -0.192373
v -1.622531 -1.492145 0.000000
v -1.592062 -1.492145 0.192373
v -1.503638 -1.492145 0.365915
v -1.365915 -1.492145 0.503639
v -1.192373 -1.492145 0.592062
v -1.000000 -1.492145 0.622531
v -0.807627 -1.492145 0.592062
v -0.634085 -1.492145 0.503639
v -0.496362 -1.492145 0.365915
v -0.407938 -1.492145 0.192373
v -0.377469 -1.492145 0.000000
v -0.762897 -1.676598 -0.077039
v -0.798308 -1.676598 -0.146537
v -1.000000 -1.676598 0.000000
v -0.853463 -1.676598 -0.201692
v -0.922961 -1.676598 -0.237102
v -1.000000 -1.676598 -0.249305
v -1.077039 -1.676598 -0.237102
v -1.146537 -1.676598 -0.201691
v -1.201691 -1.676598 -0.146537
v -1.237102 -1.676598 -0.077039
v -1.249305 -1.676598 0.000000
v -1.237102 -1.676598 0.077039
v -1.201691 -1.676598 0.146537
v -1.146537 -1.676598 0.201692
v -1.077039 -1.676598 0.237102
v -1.000000 -1.676598 0.249305
v -0.922961 -1.676598 0.237102
v -0.853463 -1.676598 0.201692
v -0.798309 -1.676598 0.146537
v -0.762898 -1.676598 0.077039
v -0.750695 -1.676598 0.000000
vt 0.648603 0.107966
vt 0.626409 0.064408
vt 0.591842 0.029841
vt 0.548284 0.007647
vt 0.500000 -0.000000
vt 0.451716 0.007647
vt 0.408159 0.029841
vt 0.373591 0.064409
vt 0.351397 0.107966
vt 0.343750 0.156250
vt 0.351397 0.204534
vt 0.373591 0.248091
vt 0.408159 0.282659
vt 0.451716 0.304853
vt 0.500000 0.312500
vt 0.548284 0.304853
vt 0.591841 0.282659
vt 0.626409 0.248091
vt 0.648603 0.204534
vt 0.656250 0.156250
vt 0.375000 0.312500
vt 0.387500 0.312500
vt 0.400000 0.312500
vt 0.412500 0.312500
vt 0.425000 0.312500
vt 0.437500 0.312500
vt 0.450000 0.312500
vt 0.462500 0.312500
vt 0.475000 0.312500
vt 0.487500 0.312500
vt 0.500000 0.312500
vt 0.512500 0.312500
vt 0.525000 0.312500
vt 0.537500 0.312500
vt 0.550000 0.312500
vt 0.562500 0.312500
vt 0.575000 0.312500
vt 0.587500 0.312500
vt 0.600000 0.312500
vt 0.612500 0.312500
vt 0.625000 0.312500
vt 0.375000 0.688440
vt 0.387500 0.688440
vt 0.400000 0.688440
vt 0.412500 0.688440
vt 0.425000 0.688440
vt 0.437500 0.688440
vt 0.450000 0.688440
vt 0.462500 0.688440
vt 0.475000 0.688440
vt 0.487500 0.688440
vt 0.500000 0.688440
vt 0.512500 0.688440
vt 0.525000 0.688440
vt 0.537500 0.688440
vt 0.550000 0.688440
vt 0.562500 0.688440
vt 0.575000 0.688440
vt 0.587500 0.688440
vt 0.600000 0.688440
vt 0.612500 0.688440
vt 0.625000 0.688440
vt 0.648603 0.795466
vt 0.626409 0.751908
vt 0.591842 0.717341
vt 0.548284 0.695147
vt 0.500000 0.687500
vt 0.451716 0.695147
vt 0.408159 0.717341
vt 0.373591 0.751909
vt 0.351397 0.795466
vt 0.343750 0.843750
vt 0.351397 0.892034
vt 0.373591 0.935591
vt 0.408159 0.970159
vt 0.451716 0.992353
vt 0.500000 1.000000
vt 0.548284 0.992353
vt 0.591841 0.970159
vt 0.626409 0.935591
vt 0.648603 0.892034
vt 0.656250 0.843750
vt 0.500000 0.150000
vt 0.500000 0.837500
vt 0.648603 0.892034
vt 0.626409 0.935591
vt 0.591841 0.970159
vt 0.548284 0.992353
vt 0.500000 1.000000
vt 0.451716 0.992353
vt 0.408159 0.970159
vt 0.373591 0.935591
vt 0.351397 0.892034
vt 0.343750 0.843750
vt 0.351397 0.795466
vt 0.373591 0.751909
vt 0.408159 0.717341
vt 0.451716 0.695147
vt 0.500000 0.687500
vt 0.548284 0.695147
vt 0.591842 0.717341
vt 0.626409 0.751908
vt 0.648603 0.795466
vt 0.656250 0.843750
vt 0.648603 0.892034
vt 0.626409 0.935591
vt 0.591841 0.970159
vt 0.548284 0.992353
vt 0.500000 1.000000
vt 0.451716 0.992353
vt 0.408159 0.970159
vt 0.373591 0.935591
vt 0.351397 0.892034
vt 0.343750 0.843750
vt 0.351397 0.795466
vt 0.373591 0.751909
vt 0.408159 0.717341
vt 0.451716 0.695147
vt 0.500000 0.687500
vt 0.548284 0.695147
vt 0.591842 0.717341
vt 0.626409 0.751908
vt 0.648603 0.795466
vt 0.656250 0.843750
vt 0.626409 0.064408
vt 0.648603 0.107966
vt 0.591842 0.029841
vt 0.548284 0.007647
vt 0.500000 -0.000000
vt 0.451716 0.007647
vt 0.408159 0.029841
vt 0.373591 0.064409
vt 0.351397 0.107966
vt 0.343750 0.156250
vt 0.351397 0.204534
vt 0.373591 0.248091
vt 0.408159 0.282659
vt 0.451716 0.304853
vt 0.500000 0.312500
vt 0.548284 0.304853
vt 0.591841 0.282659
vt 0.626409 0.248091
vt 0.648603 0.204534
vt 0.656250 0.156250
vt 0.626409 0.064408
vt 0.648603 0.107966
vt 0.591842 0.029841
vt 0.548284 0.007647
vt 0.500000 -0.000000
vt 0.451716 0.007647
vt 0.408159 0.029841
vt 0.373591 0.064409
vt 0.351397 0.107966
vt 0.343750 0.156250
vt 0.351397 0.204534
vt 0.373591 0.248091
vt 0.408159 0.282659
vt 0.451716 0.304853
vt 0.500000 0.312500
vt 0.548284 0.304853
vt 0.591841 0.282659
vt 0.626409 0.248091
vt 0.648603 0.204534
vt 0.656250 0.156250
vn 0.949248 -0.061645 -0.308428
vn 0.807478 -0.061645 -0.586667
vn 0.807539 0.060419 -0.586711
vn 0.949319 0.060419 -0.308451
vn 0.586667 -0.061645 -0.807478
vn 0.586711 0.060419 -0.807539
vn 0.308429 -0.061645 -0.949248
vn 0.308452 0.060419 -0.949319
vn -0.000000 -0.061645 -0.998098
vn -0.000000 0.060419 -0.998173
vn -0.308429 -0.061645 -0.949248
vn -0.308453 0.060419 -0.949319
vn -0.586668 -0.061645 -0.807478
vn -0.586712 0.060419 -0.807539
vn -0.807479 -0.061645 -0.586667
vn -0.807539 0.060419 -0.586711
vn -0.949248 -0.061645 -0.308429
vn -0.949319 0.060419 -0.308452
vn -0.998098 -0.061645 0.000000
vn -0.998173 0.060419 0.000000
vn -0.949248 -0.061645 0.308429
vn -0.949319 0.060419 0.308452
vn -0.807478 -0.061645 0.586667
vn -0.807539 0.060419 0.586712
vn -0.586667 -0.061645 0.807478
vn -0.586711 0.060419 0.807539
vn -0.308429 -0.061645 0.949248
vn -0.308452 0.060419 0.949319
vn 0.000000 -0.061645 0.998098
vn 0.000000 0.060419 0.998173
vn 0.308429 -0.061645 0.949248
vn 0.308453 0.060419 0.949319
vn 0.586667 -0.061645 0.807478
vn 0.586712 0.060419 0.807539
vn 0.807478 -0.061645 0.586667
vn 0.807539 0.060419 0.586711
vn 0.949248 -0.061645 0.308429
vn 0.949319 0.060419 0.308452
vn 0.998098 -0.061645 0.000001
vn 0.998173 0.060419 0.000001
vn 0.317786 -0.919622 -0.230885
vn 0.373579 -0.919622 -0.121383
vn 0.000000 -1.000000 -0.000000
vn 0.230885 -0.919622 -0.317786
vn 0.121384 -0.919622 -0.373579
vn -0.000000 -0.919622 -0.392805
vn -0.121384 -0.919622 -0.373579
vn -0.230885 -0.919622 -0.317786
vn -0.317786 -0.919622 -0.230885
vn -0.373579 -0.919622 -0.121383
vn -0.392805 -0.919622 -0.000000
vn -0.373579 -0.919622 0.121384
vn -0.317786 -0.919622 0.230885
vn -0.230885 -0.919622 0.317785
vn -0.121384 -0.919622 0.373579
vn 0.000000 -0.919622 0.392805
vn 0.121384 -0.919622 0.373579
vn 0.230885 -0.919622 0.317786
vn 0.317786 -0.919622 0.230885
vn 0.373579 -0.919622 0.121384
vn 0.392805 -0.919622 0.000001
vn 0.407290 0.903660 -0.132336
vn 0.346462 0.903660 -0.251720
vn 0.000000 1.000000 -0.000000
vn 0.251719 0.903660 -0.346462
vn 0.132336 0.903660 -0.407291
vn -0.000000 0.903660 -0.428251
vn -0.132336 0.903660 -0.407290
vn -0.251719 0.903660 -0.346462
vn -0.346462 0.903660 -0.251719
vn -0.407291 0.903660 -0.132336
vn -0.428251 0.903660 -0.000000
vn -0.407291 0.903660 0.132336
vn -0.346462 0.903660 0.251719
vn -0.251719 0.903660 0.346462
vn -0.132337 0.903660 0.407290
vn 0.000000 0.903660 0.428251
vn 0.132337 0.903660 0.407291
vn 0.251719 0.903660 0.346462
vn 0.346462 0.903660 0.251719
vn 0.407291 0.903660 0.132336
vn 0.428251 0.903660 0.000000
vn 0.602557 0.667287 -0.437783
vn 0.708348 0.667286 -0.230155
vn 0.437783 0.667286 -0.602557
vn 0.230156 0.667286 -0.708348
vn -0.000000 0.667286 -0.744801
vn -0.230156 0.667287 -0.708348
vn -0.437783 0.667286 -0.602557
vn -0.602557 0.667286 -0.437783
vn -0.708348 0.667286 -0.230156
vn -0.744801 0.667286 -0.000000
vn -0.708348 0.667286 0.230156
vn -0.602557 0.667286 0.437783
vn -0.437783 0.667286 0.602557
vn -0.230156 0.667286 0.708348
vn 0.000000 0.667286 0.744801
vn 0.230156 0.667286 0.708348
vn 0.437783 0.667286 0.602557
vn 0.602557 0.667286 0.437783
vn 0.708348 0.667286 0.230156
vn 0.744801 0.667286 0.000001
vn 0.611118 -0.766229 -0.198564
vn 0.519848 -0.766229 -0.377691
vn 0.377691 -0.766229 -0.519848
vn 0.198564 -0.766229 -0.611118
vn -0.000000 -0.766229 -0.642567
vn -0.198565 -0.766229 -0.611118
vn -0.377692 -0.766229 -0.519848
vn -0.519848 -0.766229 -0.377691
vn -0.611118 -0.766229 -0.198564
vn -0.642568 -0.766229 0.000000
vn -0.611118 -0.766229 0.198564
vn -0.519848 -0.766229 0.377692
vn -0.377692 -0.766229 0.519848
vn -0.198564 -0.766229 0.611118
vn 0.000000 -0.766229 0.642567
vn 0.198564 -0.766229 0.611118
vn 0.377692 -0.766229 0.519848
vn 0.519848 -0.766229 0.377692
vn 0.611118 -0.766229 0.198564
vn 0.642567 -0.766229 0.000001
s 1
g pCylinder2
usemtl initialShadingGroup
f 1/21/1 2/22/2 22/43/3 21/42/4
f 2/22/2 3/23/5 23/44/6 22/43/3
f 3/23/5 4/24/7 24/45/8 23/44/6
f 4/24/7 5/25/9 25/46/10 24/45/8
f 5/25/9 6/26/11 26/47/12 25/46/10
f 6/26/11 7/27/13 27/48/14 26/47/12
f 7/27/13 8/28/15 28/49/16 27/48/14
f 8/28/15 9/29/17 29/50/18 28/49/16
f 9/29/17 10/30/19 30/51/20 29/50/18
f 10/30/19 11/31/21 31/52/22 30/51/20
f 11/31/21 12/32/23 32/53/24 31/52/22
f 12/32/23 13/33/25 33/54/26 32/53/24
f 13/33/25 14/34/27 34/55/28 33/54/26
f 14/34/27 15/35/29 35/56/30 34/55/28
f 15/35/29 16/36/31 36/57/32 35/56/30
f 16/36/31 17/37/33 37/58/34 36/57/32
f 17/37/33 18/38/35 38/59/36 37/58/34
f 18/38/35 19/39/37 39/60/38 38/59/36
f 19/39/37 20/40/39 40/61/40 39/60/38
f 20/40/39 1/41/1 21/62/4 40/61/40
f 103/145/41 102/146/42 104/83/43
f 105/147/44 103/145/41 104/83/43
f 106/148/45 105/147/44 104/83/43
f 107/149/46 106/148/45 104/83/43
f 108/150/47 107/149/46 104/83/43
f 109/151/48 108/150/47 104/83/43
f 110/152/49 109/151/48 104/83/43
f 111/153/50 110/152/49 104/83/43
f 112/154/51 111/153/50 104/83/43
f 113/155/52 112/154/51 104/83/43
f 114/156/53 113/155/52 104/83/43
f 115/157/54 114/156/53 104/83/43
f 116/158/55 115/157/54 104/83/43
f 117/159/56 116/158/55 104/83/43
f 118/160/57 117/159/56 104/83/43
f 119/161/58 118/160/57 104/83/43
f 120/162/59 119/161/58 104/83/43
f 121/163/60 120/162/59 104/83/43
f 122/164/61 121/163/60 104/83/43
f 102/146/42 122/164/61 104/83/43
f 61/105/62 62/106/63 63/84/64
f 62/106/63 64/107/65 63/84/64
f 64/107/65 65/108/66 63/84/64
f 65/108/66 66/109/67 63/84/64
f 66/109/67 67/110/68 63/84/64
f 67/110/68 68/111/69 63/84/64
f 68/111/69 69/112/70 63/84/64
f 69/112/70 70/113/71 63/84/64
f 70/113/71 71/114/72 63/84/64
f 71/114/72 72/115/73 63/84/64
f 72/115/73 73/116/74 63/84/64
f 73/116/74 74/117/75 63/84/64
f 74/117/75 75/118/76 63/84/64
f 75/118/76 76/119/77 63/84/64
f 76/119/77 77/120/78 63/84/64
f 77/120/78 78/121/79 63/84/64
f 78/121/79 79/122/80 63/84/64
f 79/122/80 80/123/81 63/84/64
f 80/123/81 81/124/82 63/84/64
f 81/124/82 61/105/62 63/84/64
f 21/81/4 22/80/3 42/86/83 41/85/84
f 22/80/3 23/79/6 43/87/85 42/86/83
f 23/79/6 24/78/8 44/88/86 43/87/85
f 24/78/8 25/77/10 45/89/87 44/88/86
f 25/77/10 26/76/12 46/90/88 45/89/87
f 26/76/12 27/75/14 47/91/89 46/90/88
f 27/75/14 28/74/16 48/92/90 47/91/89
f 28/74/16 29/73/18 49/93/91 48/92/90
f 29/73/18 30/72/20 50/94/92 49/93/91
f 30/72/20 31/71/22 51/95/93 50/94/92
f 31/71/22 32/70/24 52/96/94 51/95/93
f 32/70/24 33/69/26 53/97/95 52/96/94
f 33/69/26 34/68/28 54/98/96 53/97/95
f 34/68/28 35/67/30 55/99/97 54/98/96
f 35/67/30 36/66/32 56/100/98 55/99/97
f 36/66/32 37/65/34 57/101/99 56/100/98
f 37/65/34 38/64/36 58/102/100 57/101/99
f 38/64/36 39/63/38 59/103/101 58/102/100
f 39/63/38 40/82/40 60/104/102 59/103/101
f 40/82/40 21/81/4 41/85/84 60/104/102
f 41/85/84 42/86/83 62/106/63 61/105/62
f 42/86/83 43/87/85 64/107/65 62/106/63
f 43/87/85 44/88/86 65/108/66 64/107/65
f 44/88/86 45/89/87 66/109/67 65/108/66
f 45/89/87 46/90/88 67/110/68 66/109/67
f 46/90/88 47/91/89 68/111/69 67/110/68
f 47/91/89 48/92/90 69/112/70 68/111/69
f 48/92/90 49/93/91 70/113/71 69/112/70
f 49/93/91 50/94/92 71/114/72 70/113/71
f 50/94/92 51/95/93 72/115/73 71/114/72
f 51/95/93 52/96/94 73/116/74 72/115/73
f 52/96/94 53/97/95 74/117/75 73/116/74
f 53/97/95 54/98/96 75/118/76 74/117/75
f 54/98/96 55/99/97 76/119/77 75/118/76
f 55/99/97 56/100/98 77/120/78 76/119/77
f 56/100/98 57/101/99 78/121/79 77/120/78
f 57/101/99 58/102/100 79/122/80 78/121/79
f 58/102/100 59/103/101 80/123/81 79/122/80
f 59/103/101 60/104/102 81/124/82 80/123/81
f 60/104/102 41/85/84 61/105/62 81/124/82
f 2/2/2 1/1/1 82/126/103 83/125/104
f 3/3/5 2/2/2 83/125/104 84/127/105
f 4/4/7 3/3/5 84/127/105 85/128/106
f 5/5/9 4/4/7 85/128/106 86/129/107
f 6/6/11 5/5/9 86/129/107 87/130/108
f 7/7/13 6/6/11 87/130/108 88/131/109
f 8/8/15 7/7/13 88/131/109 89/132/110
f 9/9/17 8/8/15 89/132/110 90/133/111
f 10/10/19 9/9/17 90/133/111 91/134/112
f 11/11/21 10/10/19 91/134/112 92/135/113
f 12/12/23 11/11/21 92/135/113 93/136/114
f 13/13/25 12/12/23 93/136/114 94/137/115
f 14/14/27 13/13/25 94/137/115 95/138/116
f 15/15/29 14/14/27 95/138/116 96/139/117
f 16/16/31 15/15/29 96/139/117 97/140/118
f 17/17/33 16/16/31 97/140/118 98/141/119
f 18/18/35 17/17/33 98/141/119 99/142/120
f 19/19/37 18/18/35 99/142/120 100/143/121
f 20/20/39 19/19/37 100/143/121 101/144/122
f 1/1/1 20/20/39 101/144/122 82/126/103
f 83/125/104 82/126/103 102/146/42 103/145/41
f 84/127/105 83/125/104 103/145/41 105/147/44
f 85/128/106 84/127/105 105/147/44 106/148/45
f 86/129/107 85/128/106 106/148/45 107/149/46
f 87/130/108 86/129/107 107/149/46 108/150/47
f 88/131/109 87/130/108 108/150/47 109/151/48
f 89/132/110 88/131/109 109/151/48 110/152/49
f 90/133/111 89/132/110 110/152/49 111/153/50
f 91/134/112 90/133/111 111/153/50 112/154/51
f 92/135/113 91/134/112 112/154/51 113/155/52
f 93/136/114 92/135/113 113/155/52 114/156/53
f 94/137/115 93/136/114 114/156/53 115/157/54
f 95/138/116 94/137/115 115/157/54 116/158/55
f 96/139/117 95/138/116 116/158/55 117/159/56
f 97/140/118 96/139/117 117/159/56 118/160/57
f 98/141/119 97/140/118 118/160/57 119/161/58
f 99/142/120 98/141/119 119/161/58 120/162/59
f 100/143/121 99/142/120 120/162/59 121/163/60
f 101/144/122 100/143/121 121/163/60 122/164/61
f 82/126/103 101/144/122 122/164/61 102/146/42
